<svg width="500" height="373" viewBox="0 0 500 373" fill="none" xmlns="http://www.w3.org/2000/svg">
<path d="M500 327.45H0V327.7H500V327.45Z" fill="#EBEBEB"/>
<path d="M445.26 338.9H394.36V339.15H445.26V338.9Z" fill="#EBEBEB"/>
<path d="M99.67 335.94H52.46V336.19H99.67V335.94Z" fill="#EBEBEB"/>
<path d="M398 334.26H378.81V334.51H398V334.26Z" fill="#EBEBEB"/>
<path d="M331.22 340.89H317.14V341.14H331.22V340.89Z" fill="#EBEBEB"/>
<path d="M308.23 340.89H272.79V341.14H308.23V340.89Z" fill="#EBEBEB"/>
<path d="M252.21 336.66H195.22V336.91H252.21V336.66Z" fill="#EBEBEB"/>
<path d="M237 282.85H43.91C42.3973 282.847 40.9475 282.245 39.8788 281.174C38.8102 280.103 38.21 278.653 38.21 277.14V5.71C38.21 4.19734 38.8102 2.7465 39.8788 1.67595C40.9475 0.605406 42.3973 0.00264913 43.91 0L237 0C238.514 0 239.967 0.601588 241.038 1.67242C242.108 2.74325 242.71 4.19561 242.71 5.71V277.14C242.71 277.89 242.562 278.632 242.275 279.325C241.988 280.018 241.568 280.647 241.038 281.178C240.507 281.708 239.878 282.128 239.185 282.415C238.492 282.702 237.75 282.85 237 282.85ZM43.91 0.25C42.4636 0.252649 41.0774 0.829067 40.0556 1.85273C39.0338 2.87639 38.46 4.26365 38.46 5.71V277.14C38.46 278.586 39.0338 279.974 40.0556 280.997C41.0774 282.021 42.4636 282.597 43.91 282.6H237C238.447 282.597 239.834 282.021 240.858 280.998C241.881 279.975 242.457 278.587 242.46 277.14V5.71C242.457 4.26273 241.881 2.87549 240.858 1.85212C239.834 0.828741 238.447 0.252643 237 0.25H43.91Z" fill="#EBEBEB"/>
<path d="M453.31 282.85H260.21C258.696 282.847 257.246 282.245 256.175 281.175C255.105 280.104 254.503 278.654 254.5 277.14V5.71C254.503 4.19643 255.105 2.7456 256.175 1.67534C257.246 0.60508 258.696 0.0026438 260.21 0L453.31 0C454.821 0.00529221 456.268 0.609215 457.335 1.67947C458.401 2.74973 459 4.19907 459 5.71V277.14C459 278.651 458.401 280.1 457.335 281.171C456.268 282.241 454.821 282.845 453.31 282.85ZM260.21 0.25C258.763 0.252643 257.375 0.828741 256.352 1.85212C255.329 2.87549 254.753 4.26273 254.75 5.71V277.14C254.753 278.587 255.329 279.975 256.352 280.998C257.375 282.021 258.763 282.597 260.21 282.6H453.31C454.757 282.597 456.145 282.021 457.168 280.998C458.191 279.975 458.767 278.587 458.77 277.14V5.71C458.767 4.26273 458.191 2.87549 457.168 1.85212C456.145 0.828741 454.757 0.252643 453.31 0.25H260.21Z" fill="#EBEBEB"/>
<path d="M390.37 30.71H288.57V327.44H390.37V30.71Z" fill="#EBEBEB"/>
<path d="M383.5 321.45V36.72L295.44 36.72V321.45H383.5Z" fill="#FAFAFA"/>
<path d="M285.52 30.71H183.72V327.44H285.52V30.71Z" fill="#EBEBEB"/>
<path d="M285.52 326.28H288.57L288.57 31.88H285.52L285.52 326.28Z" fill="#E0E0E0"/>
<path d="M278.65 321.44V36.71L190.59 36.71V321.44H278.65Z" fill="#FAFAFA"/>
<path d="M436.87 28.49H137.22C136.868 28.4874 136.531 28.3464 136.282 28.0975C136.033 27.8487 135.893 27.5119 135.89 27.16C135.893 26.8081 136.033 26.4713 136.282 26.2224C136.531 25.9736 136.868 25.8326 137.22 25.83H436.87C437.222 25.8326 437.559 25.9736 437.807 26.2224C438.056 26.4713 438.197 26.8081 438.2 27.16C438.197 27.5119 438.056 27.8487 437.807 28.0975C437.559 28.3464 437.222 28.4874 436.87 28.49Z" fill="#E0E0E0"/>
<path d="M383.5 42.39V36.72L295.44 36.72V42.39L383.5 42.39Z" fill="#E0E0E0"/>
<path d="M383.5 46.27V36.71L295.44 36.71V46.27L383.5 46.27Z" fill="#E0E0E0"/>
<path d="M278.65 57.6V36.71L190.59 36.71V57.6L278.65 57.6Z" fill="#E0E0E0"/>
<g opacity="0.8">
<path d="M403.44 19.6H375.24V323.79H403.44V19.6Z" fill="#F5F5F5"/>
<path d="M396 19.6H382.69V323.79H396V19.6Z" fill="#F0F0F0"/>
<path d="M418.57 19.6H390.37V323.79H418.57V19.6Z" fill="#F5F5F5"/>
<path d="M411.13 19.6H397.82V323.79H411.13V19.6Z" fill="#F0F0F0"/>
<path d="M432.67 19.6H404.47V323.79H432.67V19.6Z" fill="#F5F5F5"/>
</g>
<g opacity="0.8">
<path d="M181.46 19.6H140.53V323.79H181.46V19.6Z" fill="#F5F5F5"/>
<path d="M170.65 19.6H151.33V323.79H170.65V19.6Z" fill="#F0F0F0"/>
<path d="M203.41 19.6H162.48V323.79H203.41V19.6Z" fill="#F5F5F5"/>
<path d="M192.6 19.6H173.28V323.79H192.6V19.6Z" fill="#F0F0F0"/>
<path d="M223.87 19.6H182.94V323.79H223.87V19.6Z" fill="#F5F5F5"/>
</g>
<path d="M121.1 50.78H55.0701V199.45H121.1V50.78Z" fill="#F0F0F0"/>
<path d="M121.1 199.45H123.18L123.18 50.78H121.1L121.1 199.45Z" fill="#E6E6E6"/>
<path d="M115.1 193.45L115.1 56.78H61.0701L61.0701 193.45H115.1Z" fill="#FAFAFA"/>
<path d="M125.26 273.12H57.4801C55.9895 273.117 54.5605 272.525 53.5055 271.472C52.4506 270.419 51.8554 268.991 51.8501 267.5C51.8554 266.009 52.4506 264.581 53.5055 263.528C54.5605 262.475 55.9895 261.883 57.4801 261.88H125.26C126.749 261.885 128.175 262.479 129.228 263.532C130.281 264.585 130.875 266.011 130.88 267.5C130.875 268.989 130.281 270.415 129.228 271.468C128.175 272.521 126.749 273.115 125.26 273.12Z" fill="#F5F5F5"/>
<path d="M73.78 273.12H62.65L50 327.45H61.12L73.78 273.12Z" fill="#E6E6E6"/>
<path d="M95.9799 273.12H84.8599L78.6299 327.45H89.7499L95.9799 273.12Z" fill="#E6E6E6"/>
<path d="M108.96 273.12H120.08L132.74 327.45H121.61L108.96 273.12Z" fill="#E6E6E6"/>
<path d="M250 372.61C357.083 372.61 443.89 367.542 443.89 361.29C443.89 355.038 357.083 349.97 250 349.97C142.918 349.97 56.1101 355.038 56.1101 361.29C56.1101 367.542 142.918 372.61 250 372.61Z" fill="#F5F5F5"/>
<path d="M314.57 243.41H229.24C227.622 243.41 226.31 244.722 226.31 246.34V249.7C226.31 251.318 227.622 252.63 229.24 252.63H314.57C316.188 252.63 317.5 251.318 317.5 249.7V246.34C317.5 244.722 316.188 243.41 314.57 243.41Z" fill="#263238"/>
<path d="M313.76 355.29H317.5L313.2 252.63H308.02L313.76 355.29Z" fill="#407BFF"/>
<path opacity="0.6" d="M313.76 355.29H317.5L313.2 252.63H308.02L313.76 355.29Z" fill="white"/>
<path d="M279.33 355.29H275.59L279.89 252.63H285.07L279.33 355.29Z" fill="#407BFF"/>
<path opacity="0.6" d="M279.33 355.29H275.59L279.89 252.63H285.07L279.33 355.29Z" fill="white"/>
<path d="M264.49 355.29H268.23L263.92 252.63H258.75L264.49 355.29Z" fill="#407BFF"/>
<path opacity="0.6" d="M264.49 355.29H268.23L263.92 252.63H258.75L264.49 355.29Z" fill="white"/>
<path d="M230.05 355.29H226.31L230.62 252.63H235.79L230.05 355.29Z" fill="#407BFF"/>
<path opacity="0.6" d="M230.05 355.29H226.31L230.62 252.63H235.79L230.05 355.29Z" fill="white"/>
<g opacity="0.3">
<path d="M313.2 252.62H308.02L308.26 256.99H313.38L313.2 252.62Z" fill="#407BFF"/>
<path d="M279.71 256.99H284.82L285.07 252.62H279.89L279.71 256.99Z" fill="#407BFF"/>
<path d="M258.75 252.62L258.99 256.99H264.11L263.92 252.62H258.75Z" fill="#407BFF"/>
<path d="M230.43 256.99H235.56L235.8 252.62H230.62L230.43 256.99Z" fill="#407BFF"/>
</g>
<path d="M262.08 340.2L253.62 344.7L240.28 326.69L248.75 322.19L262.08 340.2Z" fill="#FFB573"/>
<path d="M250.56 341.92L259.4 335.78C259.472 335.718 259.557 335.673 259.648 335.646C259.739 335.619 259.835 335.611 259.929 335.623C260.023 335.635 260.114 335.667 260.195 335.717C260.276 335.766 260.346 335.832 260.4 335.91L265.69 342.6C265.944 342.969 266.044 343.422 265.967 343.864C265.891 344.305 265.644 344.699 265.28 344.96C262.17 347.04 260.77 347.77 256.7 350.19C254.19 351.67 248.19 355.19 244.5 356.8C240.81 358.41 239.33 354.71 240.75 353.7C244.12 351.32 248.58 346.63 249.59 343.35C249.746 342.779 250.087 342.276 250.56 341.92Z" fill="#263238"/>
<path opacity="0.2" d="M248.76 322.19L240.28 326.69L246.71 335.36L254.99 330.61L248.76 322.19Z" fill="black"/>
<path d="M269.19 215.52C269.19 215.52 203.45 213.47 203.19 240.94C202.87 280.42 240.34 332.26 240.34 332.26L255 322.51C255 322.51 229.32 284.82 229.1 254C248.47 248.53 294.1 252 300.01 235.91C304.85 222.77 302.32 215.52 302.32 215.52H269.19Z" fill="#407BFF"/>
<path opacity="0.2" d="M269.19 215.52C269.19 215.52 203.45 213.47 203.19 240.94C202.87 280.42 240.34 332.26 240.34 332.26L255 322.51C255 322.51 229.32 284.82 229.1 254C248.47 248.53 294.1 252 300.01 235.91C304.85 222.77 302.32 215.52 302.32 215.52H269.19Z" fill="black"/>
<path d="M258.98 325.02L241.54 335.7L236.07 330.15L255.23 318.09L258.98 325.02Z" fill="#263238"/>
<path d="M248.73 345.23C249.424 344.719 250.061 344.136 250.63 343.49C250.66 343.458 250.68 343.418 250.687 343.375C250.694 343.332 250.688 343.288 250.669 343.248C250.651 343.208 250.621 343.175 250.584 343.152C250.547 343.129 250.504 343.118 250.46 343.12C250.09 343.12 246.81 343.12 246.11 344.19C246.03 344.308 245.981 344.444 245.969 344.586C245.957 344.728 245.981 344.87 246.04 345C246.104 345.21 246.223 345.398 246.385 345.546C246.547 345.694 246.745 345.796 246.96 345.84C247.605 345.862 248.235 345.644 248.73 345.23ZM249.94 343.57C248.73 344.83 247.66 345.51 247.04 345.4C246.902 345.367 246.775 345.298 246.673 345.2C246.571 345.101 246.498 344.977 246.46 344.84C246.423 344.78 246.403 344.711 246.403 344.64C246.403 344.569 246.423 344.5 246.46 344.44C246.86 343.88 248.63 343.63 249.94 343.57Z" fill="#407BFF"/>
<path d="M250.59 343.52C250.62 343.501 250.645 343.473 250.66 343.44C250.679 343.408 250.69 343.372 250.69 343.335C250.69 343.298 250.679 343.262 250.66 343.23C250.6 343.13 249.2 340.74 247.88 340.53C247.703 340.493 247.52 340.5 247.346 340.548C247.172 340.597 247.012 340.687 246.88 340.81C246.732 340.924 246.625 341.084 246.574 341.264C246.524 341.444 246.533 341.635 246.6 341.81C247.02 342.81 249.33 343.62 250.44 343.54C250.465 343.55 250.491 343.554 250.518 343.55C250.544 343.547 250.569 343.536 250.59 343.52ZM247.3 341.08C247.449 340.978 247.632 340.939 247.81 340.97C248.6 341.1 249.56 342.35 250.06 343.11C248.97 343.01 247.33 342.3 247.06 341.66C247.01 341.53 246.98 341.37 247.23 341.15L247.3 341.08Z" fill="#407BFF"/>
<path d="M246.43 351.24L236.93 350.79L235.37 328.36L244.87 328.81L246.43 351.24Z" fill="#FFB573"/>
<path d="M236.71 349.17L247.46 348.83C247.642 348.816 247.821 348.875 247.96 348.993C248.098 349.111 248.185 349.279 248.2 349.46L249 358C249.014 358.449 248.85 358.885 248.545 359.214C248.24 359.543 247.818 359.739 247.37 359.76C243.63 359.81 241.83 359.65 237.1 359.76C234.19 359.85 228.47 360.28 224.48 359.76C220.49 359.24 221.1 355.32 222.83 355.18C226.94 354.85 232.45 352.01 235.09 349.8C235.543 349.412 236.114 349.19 236.71 349.17Z" fill="#263238"/>
<path d="M233.37 350.94C234.229 350.889 235.08 350.748 235.91 350.52C235.952 350.51 235.99 350.487 236.019 350.455C236.047 350.423 236.065 350.383 236.07 350.34C236.078 350.297 236.073 350.254 236.055 350.214C236.037 350.175 236.007 350.142 235.97 350.12C235.66 349.91 232.89 348.12 231.74 348.64C231.609 348.697 231.494 348.787 231.407 348.901C231.319 349.014 231.262 349.148 231.24 349.29C231.181 349.5 231.178 349.721 231.233 349.932C231.287 350.143 231.397 350.335 231.55 350.49C232.08 350.86 232.729 351.021 233.37 350.94ZM235.28 350.21C233.58 350.61 232.28 350.6 231.86 350.21C231.763 350.104 231.694 349.975 231.661 349.835C231.627 349.695 231.631 349.548 231.67 349.41C231.681 349.341 231.709 349.276 231.751 349.22C231.792 349.165 231.847 349.12 231.91 349.09C232.53 348.79 234.15 349.54 235.28 350.21Z" fill="#407BFF"/>
<path d="M235.86 350.53H235.96C235.994 350.512 236.022 350.484 236.042 350.451C236.061 350.417 236.071 350.379 236.07 350.34C236.07 350.23 236.21 347.47 235.21 346.57C235.08 346.444 234.921 346.351 234.746 346.3C234.572 346.25 234.388 346.243 234.21 346.28C234.018 346.293 233.836 346.37 233.692 346.498C233.549 346.627 233.453 346.8 233.42 346.99C233.23 348.04 234.72 349.99 235.69 350.53H235.86ZM234.43 346.69C234.518 346.685 234.607 346.698 234.689 346.729C234.772 346.76 234.847 346.808 234.91 346.87C235.51 347.4 235.63 348.98 235.64 349.87C234.78 349.19 233.78 347.7 233.91 347.01C233.91 346.88 234 346.73 234.32 346.68L234.43 346.69Z" fill="#407BFF"/>
<path opacity="0.2" d="M244.88 328.81L235.37 328.36L236.26 341.19L245.74 341.18L244.88 328.81Z" fill="black"/>
<path d="M292.57 215.52C292.57 215.52 223.79 222.02 226.29 242.73C229.91 272.59 231.69 336.95 231.69 336.95L249.22 337.64C249.22 337.64 256.65 279.59 252.81 249.01C270.61 249.01 314.19 250.29 318.16 239.56C321.67 230.09 320.42 215.56 320.42 215.56L292.57 215.52Z" fill="#407BFF"/>
<path d="M251.16 338.72L230.12 337.68L229.36 328.52L252.44 330.11L251.16 338.72Z" fill="#263238"/>
<path d="M277.31 154.86C277.18 156.54 277.05 157.99 276.86 159.54C276.67 161.09 276.47 162.54 276.23 164.1C275.76 167.1 275.16 170.1 274.46 173.17C273.095 179.513 270.879 185.642 267.87 191.39C266.971 193.001 265.938 194.533 264.78 195.97C263.486 197.598 261.956 199.024 260.24 200.2C256.94 202.392 253.123 203.681 249.17 203.94C245.708 204.171 242.232 203.833 238.88 202.94C237.297 202.543 235.74 202.045 234.22 201.45C233.46 201.16 232.72 200.83 231.99 200.45C231.26 200.07 230.58 199.75 229.74 199.3L232.37 192.61L234.28 192.85L236.28 193.05C237.613 193.157 238.947 193.217 240.28 193.23C242.709 193.266 245.133 192.987 247.49 192.4C250.249 191.8 252.668 190.155 254.24 187.81C254.829 186.899 255.356 185.95 255.82 184.97C256.878 182.675 257.744 180.297 258.41 177.86C259.17 175.33 259.78 172.67 260.33 169.98C260.88 167.29 261.33 164.55 261.78 161.79L262.37 157.65C262.55 156.3 262.75 154.84 262.88 153.65L277.31 154.86Z" fill="#FFB573"/>
<path d="M277.37 146.71C270.37 139.91 261.67 143.93 258.21 156.65C256.252 163.476 254.913 170.464 254.21 177.53L276.48 182.13C280.53 170 284.57 153.67 277.37 146.71Z" fill="#263238"/>
<path opacity="0.3" d="M270.2 160.61C271.79 159.17 276.31 165.61 279.07 173.54C278.29 176.54 277.4 179.43 276.49 182.14L263.09 179.37C264.16 171.45 266.63 163.83 270.2 160.61Z" fill="black"/>
<path d="M230.86 189.58L225.86 187.67L225.64 198.29C225.64 198.29 234.04 201.92 235.75 197.75L235.15 195.1C234.861 193.931 234.33 192.836 233.591 191.885C232.852 190.934 231.921 190.149 230.86 189.58Z" fill="#FFB573"/>
<path d="M219.96 187.96L217.01 196.86L225.68 198.29L225.9 187.68L219.96 187.96Z" fill="#FFB573"/>
<path d="M227.52 195C227.414 195.002 227.311 194.973 227.22 194.919C227.13 194.864 227.057 194.785 227.01 194.69L218.08 177.5C218.034 177.434 218.003 177.359 217.988 177.279C217.973 177.2 217.975 177.119 217.994 177.04C218.013 176.962 218.048 176.888 218.098 176.825C218.147 176.761 218.21 176.709 218.281 176.671C218.352 176.633 218.431 176.611 218.511 176.606C218.592 176.601 218.672 176.612 218.748 176.641C218.823 176.669 218.892 176.713 218.949 176.77C219.007 176.826 219.051 176.895 219.08 176.97L228 194.18C228.071 194.315 228.085 194.473 228.04 194.619C227.996 194.765 227.895 194.888 227.76 194.96C227.683 194.988 227.602 195.002 227.52 195Z" fill="#263238"/>
<path d="M276.54 139.9L287.22 136.85L300.94 136.2C303.023 136.103 305.08 136.693 306.796 137.878C308.512 139.063 309.792 140.778 310.44 142.76C313.05 150.76 315.44 162.29 317.21 172.26C319.21 183.44 320.21 200.26 320.42 215.52H269.19C268.02 183.67 263.97 164.84 262.19 154.42C261.835 152.378 262.159 150.276 263.113 148.435C264.066 146.595 265.597 145.118 267.47 144.23L276.54 139.9Z" fill="#263238"/>
<path opacity="0.3" d="M317.21 172.26C315.83 164.42 314.05 155.58 312.07 148.26C302.94 146.71 298.52 166.74 301.23 176.67C303.94 186.6 318.39 180.58 318.39 180.58C318.05 177.6 317.65 174.79 317.21 172.26Z" fill="black"/>
<path d="M285.4 116.06C287.6 121.46 286.28 131.36 281.94 128.56C277.6 125.76 284.06 112.76 285.4 116.06Z" fill="#263238"/>
<path d="M283 119.51L278.85 125.84L273.21 134.47C273.936 135.214 274.525 136.081 274.95 137.03C275.95 139.11 276.84 140.66 272.47 143.64C272 143.94 271.626 144.37 271.394 144.877C271.161 145.384 271.08 145.948 271.16 146.5C271.42 147.85 272.76 149.16 277.47 148.33C282.01 147.458 286.152 145.155 289.29 141.76C290.86 140.2 290.5 139.01 288.99 137.39C284.67 132.79 283.39 125.44 283 119.51Z" fill="#FFB573"/>
<path opacity="0.2" d="M274.56 132.35L278 126.2C278.07 126.35 278.15 126.53 278.24 126.71C278.548 127.473 278.796 128.258 278.98 129.06C279.61 131.8 277.49 135.7 275.16 137.56L274.89 137.03C274.473 136.143 273.934 135.319 273.29 134.58C273.246 134.54 273.199 134.503 273.15 134.47L274.56 132.35Z" fill="black"/>
<path d="M253.79 112.05C252.5 114.96 257.07 123.2 262.3 119.87C267.53 116.54 256.07 106.89 253.79 112.05Z" fill="#263238"/>
<path d="M279 150.1C278.931 150.101 278.864 150.077 278.811 150.033C278.758 149.989 278.722 149.928 278.71 149.86C278.33 147.38 276.71 145.86 274.88 144C272.56 141.72 269.93 139.14 269.07 134.1C269.063 134.063 269.063 134.024 269.071 133.987C269.078 133.949 269.093 133.914 269.115 133.882C269.136 133.851 269.163 133.824 269.195 133.803C269.227 133.782 269.263 133.767 269.3 133.76C269.338 133.751 269.377 133.751 269.415 133.758C269.453 133.766 269.488 133.782 269.52 133.805C269.551 133.827 269.577 133.857 269.596 133.89C269.615 133.924 269.627 133.961 269.63 134C270.47 138.86 273.03 141.37 275.28 143.59C277.13 145.4 278.87 147.11 279.28 149.77C279.292 149.846 279.273 149.923 279.228 149.984C279.183 150.046 279.115 150.088 279.04 150.1H279Z" fill="white"/>
<path d="M281.13 109.12C283.13 118.18 284.69 123.39 281.46 129.12C276.58 137.79 264.38 136.61 259.74 128.28C255.56 120.77 253.07 107.22 260.84 101.37C262.578 100.078 264.614 99.2445 266.759 98.9481C268.904 98.6516 271.09 98.9013 273.113 99.6741C275.136 100.447 276.932 101.718 278.333 103.369C279.734 105.02 280.697 106.998 281.13 109.12Z" fill="#FFB573"/>
<path d="M283.82 115.34C280.7 119.77 272.52 111.63 273.19 106.17C265.07 110.8 256.25 116.97 250.9 111.77C244.72 105.77 246.41 97.17 253.65 96.4C252.37 98.9 259.65 100.01 263.52 96.14C270.07 89.66 280.42 91.02 280.23 96.27C285.22 94.29 290.67 105.61 283.82 115.34Z" fill="#263238"/>
<path d="M279.27 97.74C281.2 96.3 279.92 91.17 275.44 89.66C279.7 90.21 284.11 93.39 279.27 97.74Z" fill="#263238"/>
<path d="M286.71 114.94C286.796 117.012 286.12 119.043 284.81 120.65C283.09 122.65 280.44 121.06 279.81 118.51C279.26 116.22 279.97 112.67 282.23 111.57C284.49 110.47 286.59 112.36 286.71 114.94Z" fill="#FFB573"/>
<path d="M268.13 116.46C268.37 117.2 268.19 117.93 267.71 118.11C267.23 118.29 266.71 117.83 266.42 117.11C266.13 116.39 266.36 115.64 266.84 115.47C267.32 115.3 267.89 115.73 268.13 116.46Z" fill="#263238"/>
<path d="M259.93 119.47C260.18 120.21 259.99 120.94 259.51 121.12C259.03 121.3 258.46 120.84 258.22 120.12C257.98 119.4 258.17 118.65 258.64 118.48C259.11 118.31 259.69 118.74 259.93 119.47Z" fill="#263238"/>
<path d="M262.74 119.08C262.773 121.271 262.517 123.456 261.98 125.58C263.45 126.11 265.07 124.85 265.07 124.85L262.74 119.08Z" fill="#ED893E"/>
<path d="M267.13 128.88C267.982 128.6 268.767 128.15 269.44 127.557C270.112 126.964 270.656 126.24 271.04 125.43C271.063 125.374 271.064 125.312 271.042 125.255C271.019 125.199 270.975 125.154 270.92 125.13C270.892 125.119 270.862 125.113 270.831 125.113C270.801 125.114 270.771 125.12 270.743 125.132C270.715 125.145 270.69 125.162 270.669 125.184C270.648 125.206 270.631 125.232 270.62 125.26C270.189 126.132 269.563 126.894 268.792 127.487C268.021 128.079 267.124 128.488 266.17 128.68C266.11 128.692 266.058 128.727 266.024 128.778C265.99 128.828 265.978 128.89 265.99 128.95C266.004 129.008 266.04 129.058 266.091 129.089C266.141 129.121 266.202 129.132 266.26 129.12C266.556 129.064 266.847 128.984 267.13 128.88Z" fill="#263238"/>
<path d="M268.88 113.29C268.95 113.253 269.009 113.198 269.05 113.13C269.083 113.08 269.105 113.025 269.116 112.966C269.127 112.908 269.125 112.848 269.112 112.79C269.099 112.732 269.075 112.677 269.04 112.629C269.005 112.581 268.961 112.541 268.91 112.51C268.318 112.111 267.638 111.864 266.928 111.79C266.218 111.717 265.501 111.82 264.84 112.09C264.785 112.114 264.736 112.148 264.694 112.192C264.653 112.235 264.621 112.286 264.601 112.343C264.58 112.399 264.571 112.459 264.575 112.518C264.578 112.578 264.593 112.636 264.62 112.69C264.672 112.8 264.765 112.885 264.88 112.926C264.994 112.967 265.12 112.961 265.23 112.91C265.751 112.705 266.314 112.631 266.87 112.694C267.426 112.756 267.958 112.954 268.42 113.27C268.488 113.312 268.567 113.337 268.647 113.34C268.728 113.344 268.808 113.326 268.88 113.29Z" fill="#263238"/>
<path d="M258.31 114.73C258.321 114.651 258.31 114.57 258.279 114.496C258.248 114.422 258.197 114.358 258.133 114.31C258.069 114.262 257.993 114.232 257.913 114.223C257.834 114.215 257.753 114.227 257.68 114.26C257.014 114.518 256.423 114.937 255.958 115.48C255.494 116.023 255.172 116.672 255.02 117.37C255.009 117.429 255.009 117.489 255.022 117.547C255.034 117.606 255.059 117.661 255.093 117.709C255.128 117.758 255.172 117.799 255.223 117.83C255.274 117.861 255.331 117.882 255.39 117.89C255.449 117.9 255.508 117.898 255.566 117.885C255.624 117.872 255.679 117.848 255.727 117.813C255.775 117.779 255.816 117.735 255.848 117.685C255.879 117.635 255.9 117.579 255.91 117.52C256.037 116.978 256.294 116.475 256.658 116.053C257.022 115.632 257.482 115.305 258 115.1C258.081 115.073 258.153 115.024 258.208 114.959C258.262 114.894 258.298 114.814 258.31 114.73Z" fill="#263238"/>
<path d="M308.67 143.07C309.67 144.69 310.47 146.14 311.3 147.71C312.13 149.28 312.93 150.79 313.71 152.35C315.29 155.46 316.71 158.66 318.09 161.92C319.47 165.18 320.68 168.53 321.72 172.04C322.857 175.704 323.62 179.473 324 183.29C324.202 185.528 324.125 187.782 323.77 190C323.542 191.461 323.097 192.88 322.45 194.21C321.701 195.713 320.661 197.052 319.39 198.15C318.243 199.141 316.939 199.932 315.53 200.49C314.346 200.955 313.116 201.29 311.86 201.49C309.739 201.817 307.585 201.874 305.45 201.66C303.543 201.498 301.651 201.194 299.79 200.75C298.013 200.342 296.257 199.845 294.53 199.26C291.134 198.144 287.836 196.749 284.67 195.09L287.2 188.36C293.42 189.54 300.1 190.63 305.71 190.29C306.937 190.223 308.152 190.011 309.33 189.66C310.33 189.36 310.84 188.92 310.8 188.78C310.76 188.64 310.74 188.73 310.72 188.68C310.7 188.63 310.72 188.57 310.72 188.05C310.782 186.929 310.715 185.805 310.52 184.7C310.041 181.843 309.295 179.037 308.29 176.32C307.29 173.43 306.08 170.5 304.77 167.59C303.46 164.68 302.05 161.78 300.62 158.88C299.9 157.44 299.157 156.003 298.39 154.57L296.13 150.39L308.67 143.07Z" fill="#FFB573"/>
<path d="M304 136.36C294.34 134.89 289.59 143.18 294.14 155.56C296.489 162.257 299.442 168.727 302.96 174.89L323.79 165.76C320 153.51 313.88 137.87 304 136.36Z" fill="#263238"/>
<path d="M281.84 187.43L277.38 188.78L283.71 197.78C283.71 197.78 293.09 194.42 291.17 190.34L288.81 189C286.79 187.83 284.23 186.61 281.84 187.43Z" fill="#FFB573"/>
<path d="M273.43 194.97L277.9 199.44L283.71 197.77L277.38 188.78L273.43 194.97Z" fill="#FFB573"/>
<path d="M283.18 117.8C283.975 117.8 284.62 117.021 284.62 116.06C284.62 115.099 283.975 114.32 283.18 114.32C282.385 114.32 281.74 115.099 281.74 116.06C281.74 117.021 282.385 117.8 283.18 117.8Z" fill="white"/>
<path d="M284.37 120.66L283.54 120.63L283.03 116.62L284.61 116.27L284.37 120.66Z" fill="white"/>
<path d="M290.11 196.24C287.11 196.24 284.45 195.8 282.84 194.34C282.239 193.76 281.772 193.056 281.47 192.277C281.167 191.499 281.038 190.664 281.09 189.83C281.182 185.71 281.825 181.62 283 177.67C284.39 172.22 285.49 167.91 282.15 162.61C276.83 154.18 278.42 142.39 282.15 135C285 129.35 284.03 123.09 283.67 120.73C283.62 120.42 283.58 120.19 283.56 120.03C283.556 119.992 283.56 119.953 283.571 119.917C283.582 119.88 283.6 119.846 283.624 119.816C283.648 119.786 283.678 119.762 283.711 119.744C283.745 119.725 283.782 119.714 283.82 119.71C283.858 119.706 283.897 119.71 283.933 119.721C283.97 119.732 284.004 119.75 284.034 119.774C284.064 119.798 284.088 119.828 284.106 119.861C284.125 119.895 284.136 119.932 284.14 119.97C284.14 120.12 284.19 120.35 284.23 120.64C284.61 123.05 285.6 129.44 282.66 135.26C279.01 142.51 277.45 154.06 282.66 162.26C286.13 167.78 284.95 172.41 283.58 177.77C282.428 181.669 281.799 185.705 281.71 189.77C281.655 190.522 281.766 191.277 282.033 191.982C282.301 192.686 282.72 193.324 283.26 193.85C285.96 196.28 291.92 195.67 297.68 195.07C300.26 194.81 302.93 194.53 305.28 194.53C305.357 194.53 305.431 194.561 305.485 194.615C305.539 194.669 305.57 194.743 305.57 194.82C305.57 194.897 305.539 194.971 305.485 195.025C305.431 195.079 305.357 195.11 305.28 195.11C302.96 195.11 300.28 195.38 297.74 195.65C295.2 195.92 292.49 196.24 290.11 196.24Z" fill="white"/>
<path d="M317.22 194.11H305.84C305.509 194.11 305.24 194.379 305.24 194.71V195.51C305.24 195.841 305.509 196.11 305.84 196.11H317.22C317.551 196.11 317.82 195.841 317.82 195.51V194.71C317.82 194.379 317.551 194.11 317.22 194.11Z" fill="white"/>
<path d="M388.64 202.77H111.36C110.478 202.767 109.632 202.416 109.008 201.792C108.384 201.168 108.033 200.322 108.03 199.44C108.033 198.558 108.384 197.712 109.008 197.088C109.632 196.464 110.478 196.113 111.36 196.11H388.64C389.522 196.113 390.368 196.464 390.992 197.088C391.616 197.712 391.967 198.558 391.97 199.44C391.967 200.322 391.616 201.168 390.992 201.792C390.368 202.416 389.522 202.767 388.64 202.77Z" fill="#407BFF"/>
<path opacity="0.3" d="M388.64 202.77H323.73C322.848 202.767 322.002 202.416 321.378 201.792C320.754 201.168 320.403 200.322 320.4 199.44C320.403 198.558 320.754 197.712 321.378 197.088C322.002 196.464 322.848 196.113 323.73 196.11H388.64C389.522 196.113 390.368 196.464 390.992 197.088C391.616 197.712 391.967 198.558 391.97 199.44C391.967 200.322 391.616 201.168 390.992 201.792C390.368 202.416 389.522 202.767 388.64 202.77Z" fill="#263238"/>
<path d="M385.58 359.67H391.97L384.62 202.77H375.78L385.58 359.67Z" fill="#263238"/>
<path opacity="0.1" d="M385.58 359.67H391.97L384.62 202.77H375.78L385.58 359.67Z" fill="white"/>
<path d="M326.79 359.67H320.4L327.75 202.77H336.59L326.79 359.67Z" fill="#263238"/>
<path opacity="0.2" d="M326.79 359.67H320.4L327.75 202.77H336.59L326.79 359.67Z" fill="white"/>
<path d="M173.22 359.67H179.6L172.25 202.77H163.41L173.22 359.67Z" fill="#263238"/>
<path opacity="0.1" d="M173.22 359.67H179.6L172.25 202.77H163.41L173.22 359.67Z" fill="white"/>
<path d="M114.42 359.67H108.03L115.38 202.77H124.22L114.42 359.67Z" fill="#263238"/>
<path opacity="0.2" d="M114.42 359.67H108.03L115.38 202.77H124.22L114.42 359.67Z" fill="white"/>
<path d="M330.49 211.12H117.24V224.27H330.49V211.12Z" fill="#263238"/>
<path opacity="0.2" d="M330.49 211.12H117.24V224.27H330.49V211.12Z" fill="white"/>
<path d="M152.33 187.26C151.959 187.26 151.603 187.407 151.34 187.67C151.077 187.933 150.93 188.289 150.93 188.66V194.71C150.93 195.081 151.077 195.437 151.34 195.7C151.603 195.963 151.959 196.11 152.33 196.11H197.68C197.8 196.11 197.916 196.063 198.002 195.979C198.088 195.895 198.137 195.78 198.14 195.66V187.72C198.137 187.599 198.088 187.483 198.002 187.398C197.917 187.312 197.801 187.263 197.68 187.26H152.33Z" fill="#407BFF"/>
<path opacity="0.9" d="M179.17 188.11H198.17V195.27H179.17C178.955 195.27 178.749 195.185 178.597 195.033C178.445 194.881 178.36 194.675 178.36 194.46V188.91C178.363 188.697 178.449 188.493 178.601 188.344C178.752 188.194 178.957 188.11 179.17 188.11Z" fill="white"/>
<path d="M176.05 187.26H130.24C129.467 187.26 128.84 187.887 128.84 188.66V194.71C128.84 195.483 129.467 196.11 130.24 196.11H176.05C176.823 196.11 177.45 195.483 177.45 194.71V188.66C177.45 187.887 176.823 187.26 176.05 187.26Z" fill="#407BFF"/>
<path opacity="0.2" d="M176.05 187.26H130.24C129.467 187.26 128.84 187.887 128.84 188.66V194.71C128.84 195.483 129.467 196.11 130.24 196.11H176.05C176.823 196.11 177.45 195.483 177.45 194.71V188.66C177.45 187.887 176.823 187.26 176.05 187.26Z" fill="black"/>
<path opacity="0.5" d="M153.52 187.26H146.57C146.255 187.26 146 187.515 146 187.83V195.54C146 195.855 146.255 196.11 146.57 196.11H153.52C153.835 196.11 154.09 195.855 154.09 195.54V187.83C154.09 187.515 153.835 187.26 153.52 187.26Z" fill="#407BFF"/>
<path opacity="0.5" d="M163.55 187.26H156.61C156.295 187.26 156.04 187.515 156.04 187.83V195.54C156.04 195.855 156.295 196.11 156.61 196.11H163.55C163.865 196.11 164.12 195.855 164.12 195.54V187.83C164.12 187.515 163.865 187.26 163.55 187.26Z" fill="#407BFF"/>
<path d="M144.13 176.37C143.946 176.37 143.764 176.406 143.594 176.477C143.424 176.547 143.27 176.65 143.14 176.78C143.01 176.91 142.907 177.064 142.837 177.234C142.766 177.404 142.73 177.586 142.73 177.77V185.86C142.73 186.044 142.766 186.226 142.837 186.396C142.907 186.566 143.01 186.72 143.14 186.85C143.27 186.98 143.424 187.083 143.594 187.153C143.764 187.224 143.946 187.26 144.13 187.26H193.26C193.379 187.26 193.494 187.213 193.578 187.128C193.663 187.044 193.71 186.929 193.71 186.81V176.81C193.71 176.69 193.663 176.574 193.579 176.488C193.495 176.402 193.38 176.353 193.26 176.35L144.13 176.37Z" fill="#407BFF"/>
<path opacity="0.9" d="M171 177.21H193.74V186.42H171C170.785 186.42 170.579 186.335 170.427 186.183C170.275 186.031 170.19 185.825 170.19 185.61V178C170.195 177.789 170.283 177.588 170.434 177.44C170.585 177.293 170.789 177.21 171 177.21Z" fill="white"/>
<path d="M167.84 176.37H129.32C128.547 176.37 127.92 176.997 127.92 177.77V185.86C127.92 186.633 128.547 187.26 129.32 187.26H167.84C168.613 187.26 169.24 186.633 169.24 185.86V177.77C169.24 176.997 168.613 176.37 167.84 176.37Z" fill="#407BFF"/>
<path opacity="0.2" d="M167.84 176.37H129.32C128.547 176.37 127.92 176.997 127.92 177.77V185.86C127.92 186.633 128.547 187.26 129.32 187.26H167.84C168.613 187.26 169.24 186.633 169.24 185.86V177.77C169.24 176.997 168.613 176.37 167.84 176.37Z" fill="white"/>
<path opacity="0.6" d="M164.23 178.53H136.02C135.55 178.53 135.17 178.911 135.17 179.38V184.25C135.17 184.719 135.55 185.1 136.02 185.1H164.23C164.699 185.1 165.08 184.719 165.08 184.25V179.38C165.08 178.911 164.699 178.53 164.23 178.53Z" fill="#407BFF"/>
<path d="M158.54 171.15C157.77 171.15 157.14 171.52 157.14 171.98V175.55C157.14 176 157.77 176.37 158.54 176.37H203.9C204.15 176.37 204.35 176.25 204.35 176.1V171.42C204.35 171.27 204.15 171.15 203.9 171.15H158.54Z" fill="#407BFF"/>
<path opacity="0.9" d="M185.2 171.65H204.35V175.87H185.2C185.036 175.87 184.878 175.805 184.762 175.688C184.645 175.572 184.58 175.414 184.58 175.25V172.25C184.585 172.089 184.653 171.936 184.769 171.824C184.884 171.712 185.039 171.65 185.2 171.65Z" fill="white"/>
<path d="M182.59 171.15H136.12C135.529 171.15 135.05 171.629 135.05 172.22V175.3C135.05 175.891 135.529 176.37 136.12 176.37H182.59C183.181 176.37 183.66 175.891 183.66 175.3V172.22C183.66 171.629 183.181 171.15 182.59 171.15Z" fill="#407BFF"/>
<path opacity="0.2" d="M182.59 171.15H136.12C135.529 171.15 135.05 171.629 135.05 172.22V175.3C135.05 175.891 135.529 176.37 136.12 176.37H182.59C183.181 176.37 183.66 175.891 183.66 175.3V172.22C183.66 171.629 183.181 171.15 182.59 171.15Z" fill="black"/>
<path opacity="0.5" d="M141.96 171.15H140.51C140.394 171.15 140.3 171.244 140.3 171.36V176.16C140.3 176.276 140.394 176.37 140.51 176.37H141.96C142.076 176.37 142.17 176.276 142.17 176.16V171.36C142.17 171.244 142.076 171.15 141.96 171.15Z" fill="#407BFF"/>
<path opacity="0.5" d="M179.68 171.15H178.26C178.144 171.15 178.05 171.244 178.05 171.36V176.16C178.05 176.276 178.144 176.37 178.26 176.37H179.68C179.796 176.37 179.89 176.276 179.89 176.16V171.36C179.89 171.244 179.796 171.15 179.68 171.15Z" fill="#407BFF"/>
<path d="M150.34 163.61C149.57 163.61 148.94 163.98 148.94 164.44V170.33C148.94 170.78 149.57 171.15 150.34 171.15H199.47C199.72 171.15 199.93 171.03 199.93 170.89V163.89C199.93 163.74 199.72 163.62 199.47 163.62L150.34 163.61Z" fill="#407BFF"/>
<path opacity="0.9" d="M177 164.11H199.93V170.66H177C176.836 170.66 176.678 170.595 176.562 170.478C176.445 170.362 176.38 170.204 176.38 170.04V164.73C176.38 164.566 176.445 164.408 176.562 164.292C176.678 164.175 176.836 164.11 177 164.11Z" fill="white"/>
<path d="M174.38 163.61H135.2C134.609 163.61 134.13 164.089 134.13 164.68V170.08C134.13 170.671 134.609 171.15 135.2 171.15H174.38C174.971 171.15 175.45 170.671 175.45 170.08V164.68C175.45 164.089 174.971 163.61 174.38 163.61Z" fill="#407BFF"/>
<path opacity="0.1" d="M174.38 163.61H135.2C134.609 163.61 134.13 164.089 134.13 164.68V170.08C134.13 170.671 134.609 171.15 135.2 171.15H174.38C174.971 171.15 175.45 170.671 175.45 170.08V164.68C175.45 164.089 174.971 163.61 174.38 163.61Z" fill="black"/>
<path d="M259.92 194.45H218.65C218.429 194.45 218.217 194.537 218.06 194.692C217.902 194.848 217.813 195.059 217.81 195.28C217.813 195.501 217.902 195.712 218.06 195.868C218.217 196.023 218.429 196.11 218.65 196.11H259.92C260.14 196.11 260.351 196.023 260.507 195.867C260.663 195.711 260.75 195.5 260.75 195.28C260.75 195.06 260.663 194.849 260.507 194.693C260.351 194.537 260.14 194.45 259.92 194.45Z" fill="white"/>
<path d="M340.66 192.47H367.78L370.23 196.01H338.21L340.66 192.47Z" fill="#263238"/>
<path d="M382.54 131.88C382.54 132.602 382.326 133.308 381.925 133.908C381.524 134.508 380.954 134.976 380.287 135.252C379.62 135.528 378.886 135.601 378.178 135.46C377.47 135.319 376.82 134.971 376.309 134.461C375.799 133.95 375.451 133.3 375.31 132.592C375.169 131.884 375.242 131.15 375.518 130.483C375.794 129.816 376.262 129.246 376.862 128.845C377.462 128.444 378.168 128.23 378.89 128.23C379.37 128.229 379.845 128.322 380.288 128.505C380.732 128.688 381.135 128.957 381.474 129.296C381.813 129.635 382.082 130.038 382.265 130.482C382.448 130.925 382.541 131.4 382.54 131.88Z" fill="black"/>
<path d="M355.12 194.87C354.964 194.872 354.81 194.838 354.67 194.77C354.389 194.653 354.167 194.429 354.05 194.148C353.934 193.867 353.934 193.551 354.05 193.27L380.18 131.43C380.315 131.172 380.542 130.974 380.816 130.875C381.09 130.777 381.392 130.785 381.66 130.898C381.928 131.012 382.144 131.222 382.265 131.487C382.385 131.752 382.401 132.053 382.31 132.33L356.18 194.16C356.092 194.369 355.945 194.548 355.757 194.674C355.568 194.8 355.347 194.868 355.12 194.87Z" fill="#263238"/>
<path d="M381.24 133C380.991 133.002 380.748 132.921 380.55 132.77L333.1 97.23C332.979 97.1394 332.878 97.0259 332.801 96.8959C332.724 96.766 332.673 96.6221 332.652 96.4726C332.63 96.3231 332.639 96.1709 332.676 96.0246C332.714 95.8783 332.78 95.7408 332.87 95.62C332.961 95.4992 333.074 95.3974 333.204 95.3205C333.334 95.2435 333.478 95.1929 333.628 95.1716C333.777 95.1502 333.929 95.1585 334.076 95.196C334.222 95.2335 334.359 95.2994 334.48 95.39L381.94 131C382.184 131.183 382.345 131.455 382.389 131.757C382.432 132.059 382.353 132.366 382.17 132.61C382.054 132.74 381.91 132.843 381.749 132.91C381.588 132.978 381.414 133.008 381.24 133Z" fill="#263238"/>
<path d="M384.89 131.88C384.89 132.602 384.676 133.308 384.275 133.908C383.874 134.508 383.304 134.976 382.637 135.252C381.97 135.528 381.236 135.601 380.528 135.46C379.82 135.319 379.17 134.971 378.659 134.461C378.149 133.95 377.801 133.3 377.66 132.592C377.519 131.884 377.592 131.15 377.868 130.483C378.144 129.816 378.612 129.246 379.212 128.845C379.812 128.444 380.518 128.23 381.24 128.23C381.72 128.229 382.195 128.322 382.638 128.505C383.082 128.688 383.485 128.957 383.824 129.296C384.163 129.635 384.432 130.038 384.615 130.482C384.798 130.925 384.891 131.4 384.89 131.88Z" fill="#263238"/>
<path d="M333.79 99.95C335.8 99.95 337.43 98.3203 337.43 96.31C337.43 94.2997 335.8 92.67 333.79 92.67C331.78 92.67 330.15 94.2997 330.15 96.31C330.15 98.3203 331.78 99.95 333.79 99.95Z" fill="#263238"/>
<path d="M328.69 112.94C327.549 114.083 326.096 114.861 324.512 115.177C322.929 115.493 321.288 115.332 319.796 114.715C318.304 114.098 317.029 113.052 316.131 111.71C315.234 110.368 314.755 108.79 314.755 107.175C314.755 105.561 315.234 103.982 316.131 102.64C317.029 101.298 318.304 100.252 319.796 99.6348C321.288 99.0176 322.929 98.8568 324.512 99.1728C326.096 99.4888 327.549 100.267 328.69 101.41C329.448 102.167 330.048 103.066 330.458 104.055C330.868 105.044 331.079 106.104 331.079 107.175C331.079 108.246 330.868 109.306 330.458 110.295C330.048 111.284 329.448 112.183 328.69 112.94Z" fill="#407BFF"/>
<path opacity="0.7" d="M328.69 112.94C327.549 114.083 326.096 114.861 324.512 115.177C322.929 115.493 321.288 115.332 319.796 114.715C318.304 114.098 317.029 113.052 316.131 111.71C315.234 110.368 314.755 108.79 314.755 107.175C314.755 105.561 315.234 103.982 316.131 102.64C317.029 101.298 318.304 100.252 319.796 99.6348C321.288 99.0176 322.929 98.8568 324.512 99.1728C326.096 99.4888 327.549 100.267 328.69 101.41C329.448 102.167 330.048 103.066 330.458 104.055C330.868 105.044 331.079 106.104 331.079 107.175C331.079 108.246 330.868 109.306 330.458 110.295C330.048 111.284 329.448 112.183 328.69 112.94Z" fill="white"/>
<path d="M333.79 96.31C332.168 94.6857 330.241 93.3971 328.12 92.518C325.999 91.6388 323.726 91.1863 321.43 91.1863C319.134 91.1863 316.861 91.6388 314.74 92.518C312.619 93.3971 310.693 94.6857 309.07 96.31L333.79 121C337.061 117.724 338.899 113.284 338.899 108.655C338.899 104.026 337.061 99.5856 333.79 96.31Z" fill="#263238"/>
<g opacity="0.2">
<path d="M309.06 96.31L205.24 196.11H311.75L333.79 121.03L309.06 96.31Z" fill="#407BFF"/>
<path opacity="0.7" d="M309.06 96.31L205.24 196.11H311.75L333.79 121.03L309.06 96.31Z" fill="white"/>
</g>
</svg>
