<svg width="30" height="30" viewBox="0 0 30 30" fill="none" xmlns="http://www.w3.org/2000/svg">
<path fill-rule="evenodd" clip-rule="evenodd" d="M7.24138 2.58517V6.2069H1.55172C1.14 6.2069 0.745345 6.37034 0.454655 6.66155C0.163448 6.95224 0 7.3469 0 7.75862C0 9.05638 0 12.1971 0 14.7414C0 15.0269 0.231724 15.2586 0.517241 15.2586C0.802759 15.2586 1.03448 15.0269 1.03448 14.7414V7.75862C1.03448 7.62155 1.08879 7.48965 1.18603 7.39293C1.28276 7.29569 1.41466 7.24138 1.55172 7.24138H7.24138V17.5862C7.24138 17.9979 7.40483 18.3926 7.69603 18.6833C7.98672 18.9745 8.38138 19.1379 8.7931 19.1379C11.3793 19.1379 18.1034 19.1379 20.6897 19.1379C21.1014 19.1379 21.496 18.9745 21.7867 18.6833C22.0779 18.3926 22.2414 17.9979 22.2414 17.5862C22.2414 15.9455 22.2414 12.931 22.2414 12.931C22.2414 12.6455 22.0097 12.4138 21.7241 12.4138C21.4386 12.4138 21.2069 12.6455 21.2069 12.931V17.5862C21.2069 17.7233 21.1526 17.8552 21.0553 17.9519C20.9586 18.0491 20.8267 18.1034 20.6897 18.1034H8.7931C8.65603 18.1034 8.52414 18.0491 8.42741 17.9519C8.33017 17.8552 8.27586 17.7233 8.27586 17.5862V4.65569C8.72069 4.98931 9.26431 5.17241 9.82655 5.17241H20.6897C20.9752 5.17241 21.2069 5.40414 21.2069 5.68965V10.8621C21.2069 11.1476 21.4386 11.3793 21.7241 11.3793C22.0097 11.3793 22.2414 11.1476 22.2414 10.8621V7.24138H28.4483C28.5853 7.24138 28.7172 7.29569 28.814 7.39293C28.9112 7.48965 28.9655 7.62155 28.9655 7.75862V20.6897H1.03448V16.5517C1.03448 16.2662 0.802759 16.0345 0.517241 16.0345C0.231724 16.0345 0 16.2662 0 16.5517V23.2759C0 23.6876 0.163448 24.0822 0.454655 24.3729C0.745345 24.6641 1.14 24.8276 1.55172 24.8276H3.62069C3.90621 24.8276 4.13793 24.5959 4.13793 24.3103C4.13793 24.0248 3.90621 23.7931 3.62069 23.7931H1.55172C1.41466 23.7931 1.28276 23.7388 1.18603 23.6416C1.08879 23.5448 1.03448 23.4129 1.03448 23.2759V21.7241H28.9655V23.2759C28.9655 23.4129 28.9112 23.5448 28.814 23.6416C28.7172 23.7388 28.5853 23.7931 28.4483 23.7931H5.68965C5.40414 23.7931 5.17241 24.0248 5.17241 24.3103C5.17241 24.5959 5.40414 24.8276 5.68965 24.8276H12.21C12.1272 26.2148 11.7678 28.0071 10.4426 28.9655H9.56896C9.28345 28.9655 9.05172 29.1972 9.05172 29.4828C9.05172 29.7683 9.28345 30 9.56896 30H20.431C20.7166 30 20.9483 29.7683 20.9483 29.4828C20.9483 29.1972 20.7166 28.9655 20.431 28.9655H19.5574C18.2322 28.0065 17.8728 26.2148 17.79 24.8276H28.4483C28.86 24.8276 29.2547 24.6641 29.5453 24.3729C29.8365 24.0822 30 23.6876 30 23.2759C30 20.1579 30 10.8766 30 7.75862C30 7.3469 29.8365 6.95224 29.5453 6.66155C29.2547 6.37034 28.86 6.2069 28.4483 6.2069H22.2414V5.68965C22.2414 5.22983 22.0417 4.81707 21.7241 4.5331V0.517241C21.7241 0.231724 21.4924 0 21.2069 0H9.82655C9.14069 0 8.48328 0.272586 7.99862 0.757241C7.51397 1.2419 7.24138 1.89931 7.24138 2.58517ZM16.7555 24.8276H13.2445C13.1643 26.1367 12.8384 27.7655 11.9074 28.9655H18.0926C17.1616 27.7655 16.8357 26.1362 16.7555 24.8276ZM2.06897 17.069V18.1034C2.06897 18.389 2.30069 18.6207 2.58621 18.6207C2.87172 18.6207 3.10345 18.389 3.10345 18.1034V17.069C3.10345 16.7834 2.87172 16.5517 2.58621 16.5517C2.30069 16.5517 2.06897 16.7834 2.06897 17.069ZM3.10345 15.5172V8.7931C3.10345 8.50759 2.87172 8.27586 2.58621 8.27586C2.30069 8.27586 2.06897 8.50759 2.06897 8.7931V15.5172C2.06897 15.8028 2.30069 16.0345 2.58621 16.0345C2.87172 16.0345 3.10345 15.8028 3.10345 15.5172ZM20.1724 8.27586C20.1724 7.41879 19.4778 6.72414 18.6207 6.72414H10.8621C10.005 6.72414 9.31034 7.41879 9.31034 8.27586C9.31034 8.76259 9.31034 9.34086 9.31034 9.82759C9.31034 10.6847 10.005 11.3793 10.8621 11.3793H18.6207C19.4778 11.3793 20.1724 10.6847 20.1724 9.82759V8.27586ZM19.1379 8.27586V9.82759C19.1379 10.1131 18.9062 10.3448 18.6207 10.3448H10.8621C10.5766 10.3448 10.3448 10.1131 10.3448 9.82759V8.27586C10.3448 7.99034 10.5766 7.75862 10.8621 7.75862H18.6207C18.9062 7.75862 19.1379 7.99034 19.1379 8.27586ZM20.6897 1.03448V4.13793H9.82655C9.41534 4.13793 9.02069 3.97448 8.73 3.68379C8.43931 3.3931 8.27586 2.99845 8.27586 2.58724V2.58517C8.27586 2.17397 8.43931 1.77931 8.73 1.48862C9.02069 1.19793 9.41534 1.03448 9.82655 1.03448H20.6897ZM19.6552 2.06897H12.931C12.6455 2.06897 12.4138 2.30069 12.4138 2.58621C12.4138 2.87172 12.6455 3.10345 12.931 3.10345H19.6552C19.9407 3.10345 20.1724 2.87172 20.1724 2.58621C20.1724 2.30069 19.9407 2.06897 19.6552 2.06897Z" fill="#1D2D5B"/>
</svg>
