<svg width="30" height="30" viewBox="0 0 30 30" fill="none" xmlns="http://www.w3.org/2000/svg">
<path d="M29.7293 18.0962C28.8527 16.8331 27.9642 16.813 25.7397 18.0238L21.428 20.7507C20.789 21.1024 19.4775 21.2079 18.2055 21.2302C18.4315 20.7435 18.3305 20.1626 17.9035 19.5026C17.5079 18.8923 16.9694 18.4071 16.3444 18.0755C17.3804 17.2045 18.0005 15.9078 18.0005 14.4828C18.0005 11.9162 15.9819 9.82761 13.5003 9.82761C11.0188 9.82761 9.00023 11.9162 9.00023 14.4828C9.00023 15.2488 9.18423 15.9802 9.51374 16.6324C9.50724 16.6278 9.50024 16.6236 9.49424 16.6185C7.6992 15.2183 4.70012 15.0207 3.50059 14.9995V13.4338H0V30H3.50009V28.4483H10.0003C11.0203 28.4483 12.0493 28.3676 13.0583 28.2093L19.54 27.1898C19.776 27.1867 20.015 27.1578 20.228 27.1081C20.825 27.0212 21.3955 26.7264 21.8791 26.2547L29.4578 20.1492L29.4693 20.1393C30.0598 19.634 30.1738 18.7361 29.7293 18.0962ZM11.5853 17.5081C10.5908 16.8347 10.0003 15.7112 10.0003 14.4828C10.0003 12.4862 11.5708 10.8621 13.5003 10.8621C15.4299 10.8621 17.0004 12.4862 17.0004 14.4828C17.0004 15.8204 16.3049 17.0219 15.1744 17.6581C15.1124 17.6457 15.0494 17.6395 14.9869 17.6297C14.9244 17.6198 14.8629 17.6085 14.7994 17.6012C14.6369 17.5826 14.4734 17.5712 14.3094 17.5712H12.3593C12.1078 17.5717 11.8478 17.5505 11.5853 17.5081ZM2.50006 28.9655H1.00003V14.4683H2.50006V15.0171V28.4488V28.9655ZM28.8367 19.3386L21.245 25.454L21.2065 25.4886C20.8715 25.8202 20.485 26.0261 20.0395 26.0928C19.8575 26.1347 19.676 26.1559 19.5005 26.1559L12.9078 27.1867C11.9483 27.3378 10.9698 27.4143 10.0003 27.4143H3.50009V16.0355C4.60862 16.0593 7.35319 16.2445 8.89223 17.4445C9.56024 17.9659 10.3608 18.3197 11.2148 18.4893L11.2223 18.494L11.3173 18.5111C11.3223 18.5121 11.3268 18.5121 11.3318 18.5131C11.4958 18.5421 11.6618 18.5654 11.8293 18.5804C11.8348 18.5809 11.8403 18.5819 11.8453 18.5824C12.0153 18.5974 12.1863 18.6062 12.3588 18.6062H14.3089C14.5839 18.6062 14.8589 18.6398 15.1259 18.7061L15.1579 18.7143C15.9444 18.9161 16.6279 19.3945 17.0714 20.0788C17.2819 20.4031 17.3649 20.6726 17.2944 20.7993C17.1609 21.0383 16.5414 21.1852 15.9129 21.2136C15.7084 21.21 15.5219 21.2074 15.3584 21.2074H10.5003C8.93473 21.2074 8.0002 21.9807 8.0002 23.2764C8.0002 23.5619 8.22371 23.7936 8.50022 23.7936C8.77672 23.7936 9.00023 23.5619 9.00023 23.2764C9.00023 23.0204 9.00023 22.2419 10.5003 22.2419H15.3474C15.4609 22.2492 15.6789 22.259 15.9534 22.2486C16.0394 22.2502 16.1284 22.2517 16.2194 22.2533C18.566 22.2983 20.7665 22.2859 21.9236 21.6486L26.2327 18.9228C28.2947 17.8019 28.5022 18.1024 28.9162 18.6993C29.0547 18.898 29.0192 19.1778 28.8367 19.3386Z" fill="#1D2D5B"/>
<path d="M16.0004 14.4828C16.0004 13.0567 14.8788 11.8965 13.5003 11.8965C12.1218 11.8965 11.0002 13.0567 11.0002 14.4828C11.0002 15.9088 12.1218 17.069 13.5003 17.069C14.8788 17.069 16.0004 15.9088 16.0004 14.4828ZM13.5003 16.0345C12.6733 16.0345 12.0003 15.3383 12.0003 14.4828C12.0003 13.6272 12.6733 12.931 13.5003 12.931C14.3273 12.931 15.0003 13.6272 15.0003 14.4828C15.0003 15.3383 14.3273 16.0345 13.5003 16.0345Z" fill="#1D2D5B"/>
<path d="M21.0005 9.31034C23.4821 9.31034 25.5007 7.22172 25.5007 4.65517C25.5007 2.08862 23.4821 0 21.0005 0C18.519 0 16.5004 2.08862 16.5004 4.65517C16.5004 7.22172 18.519 9.31034 21.0005 9.31034ZM21.0005 1.03448C22.9301 1.03448 24.5006 2.65862 24.5006 4.65517C24.5006 6.65172 22.9301 8.27586 21.0005 8.27586C19.071 8.27586 17.5005 6.65172 17.5005 4.65517C17.5005 2.65862 19.071 1.03448 21.0005 1.03448Z" fill="#1D2D5B"/>
<path d="M21.0006 7.24138C22.3791 7.24138 23.5006 6.08121 23.5006 4.65518C23.5006 3.22914 22.3791 2.06897 21.0006 2.06897C19.622 2.06897 18.5005 3.22914 18.5005 4.65518C18.5005 6.08121 19.622 7.24138 21.0006 7.24138ZM21.0006 3.10345C21.8276 3.10345 22.5006 3.79966 22.5006 4.65518C22.5006 5.51069 21.8276 6.2069 21.0006 6.2069C20.1735 6.2069 19.5005 5.51069 19.5005 4.65518C19.5005 3.79966 20.1735 3.10345 21.0006 3.10345Z" fill="#1D2D5B"/>
</svg>
