<svg width="30" height="30" viewBox="0 0 30 30" fill="none" xmlns="http://www.w3.org/2000/svg">
<path d="M4.8446 5.50301C7.54837 5.26732 8.98666 6.24597 9.55079 6.77885C10.8928 7.4612 12.3728 7.82239 13.8758 7.83436C15.4244 7.83141 16.9464 7.42926 18.2974 6.66613C18.9276 6.12812 20.3506 5.28269 22.8816 5.50301C23.1242 5.52347 23.365 5.44624 23.5513 5.28821C23.7376 5.13019 23.8542 4.90423 23.8757 4.65973C23.8972 4.41524 23.8218 4.17212 23.666 3.98352C23.5102 3.79492 23.2866 3.6762 23.0442 3.65331C21.1514 3.40492 19.2321 3.83471 17.6215 4.86766L18.6227 1.696C18.6838 1.50055 18.6983 1.29332 18.6652 1.09114C18.632 0.888955 18.552 0.6975 18.4317 0.532304C18.3114 0.367109 18.1542 0.232823 17.9728 0.14034C17.7914 0.0478568 17.5909 -0.000220494 17.3877 7.70634e-06H10.3436C10.1375 -0.000707371 9.93416 0.0483518 9.75068 0.143082C9.56719 0.237813 9.40887 0.37546 9.28895 0.544513C9.16904 0.713566 9.09102 0.909108 9.06141 1.11479C9.03181 1.32047 9.05149 1.5303 9.1188 1.72674L10.2064 4.93939C9.1747 4.20668 7.40099 3.41249 4.68705 3.65331C4.44375 3.67437 4.21872 3.79201 4.06146 3.98035C3.90419 4.16869 3.82758 4.41229 3.84847 4.65758C3.86936 4.90287 3.98605 5.12974 4.17286 5.28829C4.35967 5.44684 4.6013 5.52408 4.8446 5.50301Z" fill="#1D2D5B"/>
<path d="M25.9006 21.3306C25.5766 20.6397 25.3863 19.8928 25.34 19.13C24.2122 19.0484 23.1352 18.6252 22.2501 17.9159C21.365 17.2066 20.7132 16.2442 20.3799 15.1549C20.0467 14.0656 20.0477 12.9002 20.3828 11.8115C20.7178 10.7228 21.3713 9.76155 22.2576 9.05373C21.5112 8.34282 20.6191 7.80583 19.6442 7.48071C17.9438 8.59144 15.963 9.18716 13.9368 9.1972C11.8799 9.17866 9.8654 8.60546 8.10238 7.53708C2.97435 9.38678 2.52711 15.8121 2.5881 18.6097C2.60684 19.5502 2.40667 20.482 2.00364 21.3305L0.351897 24.8198C0.0899444 25.3713 -0.0290605 25.9808 0.00600071 26.5913C0.0410619 27.2018 0.229045 27.7934 0.552388 28.3108C0.875731 28.8282 1.32388 29.2545 1.85497 29.5499C2.38606 29.8453 2.98275 30.0001 3.58931 30H24.3149C24.9216 30.0003 25.5185 29.8457 26.0499 29.5504C26.5813 29.2552 27.0298 28.8291 27.3536 28.3118C27.6774 27.7944 27.8659 27.2029 27.9016 26.5922C27.9372 25.9816 27.8188 25.3718 27.5574 24.8198L25.9006 21.3306ZM14.8272 24.2708H14.6266V25.9668C14.6266 26.1706 14.5463 26.3661 14.4033 26.5102C14.2604 26.6544 14.0664 26.7353 13.8643 26.7353C13.6621 26.7353 13.4682 26.6544 13.3252 26.5102C13.1822 26.3661 13.1019 26.1706 13.1019 25.9668V24.2708H10.8739C10.7738 24.2708 10.6747 24.2509 10.5822 24.2123C10.4897 24.1736 10.4057 24.117 10.3349 24.0457C10.2641 23.9743 10.2079 23.8896 10.1696 23.7963C10.1313 23.7031 10.1116 23.6031 10.1116 23.5022C10.1116 23.4013 10.1313 23.3013 10.1696 23.2081C10.2079 23.1148 10.2641 23.0301 10.3349 22.9587C10.4057 22.8874 10.4897 22.8308 10.5822 22.7921C10.6747 22.7535 10.7738 22.7336 10.8739 22.7336H14.8272C15.1628 22.7336 15.4847 22.5992 15.722 22.3599C15.9593 22.1207 16.0926 21.7962 16.0926 21.4578C16.0926 21.1194 15.9593 20.7949 15.722 20.5556C15.4847 20.3164 15.1628 20.1819 14.8272 20.1819H13.0538C12.2734 20.1819 11.5251 19.8694 10.9733 19.3131C10.4215 18.7568 10.1115 18.0023 10.1115 17.2156C10.1115 16.4289 10.4215 15.6744 10.9733 15.1181C11.5251 14.5618 12.2734 14.2493 13.0538 14.2493H13.1019V12.3721C13.1019 12.1682 13.1822 11.9728 13.3252 11.8286C13.4682 11.6845 13.6621 11.6035 13.8643 11.6035C14.0664 11.6035 14.2604 11.6845 14.4033 11.8286C14.5463 11.9728 14.6266 12.1682 14.6266 12.3721V14.2495H16.5015C16.7036 14.2495 16.8975 14.3305 17.0405 14.4746C17.1835 14.6188 17.2638 14.8142 17.2638 15.0181C17.2638 15.2219 17.1835 15.4174 17.0405 15.5616C16.8975 15.7057 16.7036 15.7867 16.5015 15.7867H13.0538C12.6778 15.7867 12.3172 15.9372 12.0514 16.2053C11.7855 16.4733 11.6362 16.8368 11.6362 17.2159C11.6362 17.5949 11.7855 17.9584 12.0514 18.2265C12.3172 18.4945 12.6778 18.6451 13.0538 18.6451H14.8272C15.5672 18.6451 16.2768 18.9414 16.8001 19.469C17.3234 19.9965 17.6173 20.712 17.6173 21.458C17.6173 22.2041 17.3234 22.9196 16.8001 23.4471C16.2768 23.9747 15.5672 24.2708 14.8272 24.2708Z" fill="#1D2D5B"/>
<path d="M25.7517 9.20129C24.9114 9.20127 24.09 9.45246 23.3914 9.92309C22.6927 10.3937 22.1482 11.0627 21.8266 11.8453C21.505 12.628 21.4209 13.4892 21.5848 14.32C21.7487 15.1509 22.1533 15.9141 22.7475 16.5131C23.3416 17.1121 24.0987 17.5201 24.9228 17.6853C25.7469 17.8506 26.6011 17.7658 27.3774 17.4416C28.1537 17.1174 28.8172 16.5684 29.2841 15.864C29.7509 15.1597 30.0001 14.3316 30 13.4844C30 12.3485 29.5524 11.2591 28.7557 10.4558C27.959 9.65259 26.8784 9.20132 25.7517 9.20129ZM27.5195 14.1081H26.4298V15.2665C26.4282 15.4468 26.3561 15.6192 26.2291 15.7462C26.102 15.8732 25.9304 15.9444 25.7515 15.9444C25.5727 15.9444 25.401 15.8732 25.274 15.7462C25.147 15.6192 25.0748 15.4468 25.0733 15.2665V14.1081H23.9839C23.804 14.1081 23.6315 14.0361 23.5043 13.9079C23.3771 13.7796 23.3057 13.6057 23.3057 13.4243C23.3057 13.243 23.3771 13.069 23.5043 12.9408C23.6315 12.8125 23.804 12.7405 23.9839 12.7405H25.0733V11.7024C25.0725 11.6121 25.0895 11.5225 25.1232 11.4389C25.1569 11.3552 25.2068 11.2792 25.2698 11.215C25.3329 11.1509 25.4079 11.1 25.4906 11.0653C25.5733 11.0305 25.662 11.0126 25.7515 11.0126C25.8411 11.0126 25.9298 11.0305 26.0125 11.0653C26.0951 11.1 26.1702 11.1509 26.2332 11.215C26.2963 11.2792 26.3461 11.3552 26.3799 11.4389C26.4136 11.5225 26.4306 11.6121 26.4298 11.7024V12.7405H27.5195C27.6994 12.7405 27.8719 12.8125 27.9991 12.9408C28.1263 13.069 28.1978 13.243 28.1978 13.4243C28.1978 13.6057 28.1263 13.7796 27.9991 13.9079C27.8719 14.0361 27.6994 14.1081 27.5195 14.1081Z" fill="#1D2D5B"/>
</svg>
