<svg width="30" height="30" viewBox="0 0 30 30" fill="none" xmlns="http://www.w3.org/2000/svg">
<path d="M9.16406 15.5455C9.16406 16.2467 9.32286 16.9322 9.62037 17.5152C9.91788 18.0983 10.3407 18.5527 10.8355 18.821C11.3302 19.0894 11.8746 19.1596 12.3998 19.0228C12.925 18.886 13.4075 18.5483 13.7861 18.0525C14.1648 17.5566 14.4227 16.9249 14.5271 16.2371C14.6316 15.5494 14.578 14.8365 14.3731 14.1887C14.1681 13.5408 13.8211 12.9871 13.3758 12.5975C12.9306 12.2079 12.4071 12 11.8716 12C11.1539 12.0014 10.4658 12.3754 9.9583 13.04C9.45078 13.7046 9.16516 14.6056 9.16406 15.5455ZM14.1626 15.5455C14.1626 16.1388 14.0283 16.7188 13.7765 17.2122C13.5248 17.7055 13.167 18.09 12.7483 18.3171C12.3297 18.5442 11.8691 18.6036 11.4247 18.4878C10.9802 18.3721 10.572 18.0863 10.2516 17.6668C9.93123 17.2472 9.71303 16.7127 9.62463 16.1307C9.53623 15.5488 9.5816 14.9456 9.755 14.3974C9.9284 13.8492 10.222 13.3807 10.5988 13.051C10.9756 12.7214 11.4185 12.5455 11.8716 12.5455C12.4789 12.5469 13.061 12.8634 13.4904 13.4257C13.9198 13.988 14.1615 14.7502 14.1626 15.5455Z" fill="#1D2D5B"/>
<path d="M17.9115 15.5455C17.9115 15.2758 17.8505 15.0121 17.736 14.7879C17.6216 14.5636 17.459 14.3888 17.2687 14.2856C17.0784 14.1824 16.869 14.1554 16.667 14.208C16.465 14.2606 16.2794 14.3905 16.1338 14.5812C15.9882 14.7719 15.889 15.0149 15.8488 15.2794C15.8086 15.5439 15.8292 15.8181 15.9081 16.0673C15.9869 16.3165 16.1204 16.5294 16.2916 16.6793C16.4629 16.8291 16.6642 16.9091 16.8702 16.9091C17.1464 16.9091 17.4112 16.7654 17.6065 16.5097C17.8018 16.254 17.9115 15.9071 17.9115 15.5455ZM16.8702 16.3636C16.7466 16.3636 16.6258 16.3157 16.523 16.2258C16.4203 16.1359 16.3402 16.0081 16.2929 15.8586C16.2456 15.7091 16.2332 15.5446 16.2573 15.3858C16.2815 15.2271 16.341 15.0813 16.4283 14.9669C16.5157 14.8525 16.6271 14.7746 16.7483 14.743C16.8695 14.7114 16.9951 14.7276 17.1093 14.7896C17.2234 14.8515 17.321 14.9564 17.3897 15.0909C17.4583 15.2255 17.495 15.3836 17.495 15.5455C17.495 15.7625 17.4292 15.9706 17.312 16.124C17.1948 16.2774 17.0359 16.3636 16.8702 16.3636Z" fill="#1D2D5B"/>
<path d="M5.4151 15.5455C5.4151 15.8152 5.47618 16.0788 5.5906 16.3031C5.70503 16.5273 5.86767 16.7021 6.05795 16.8053C6.24824 16.9085 6.45762 16.9355 6.65963 16.8829C6.86163 16.8303 7.04719 16.7004 7.19282 16.5097C7.33846 16.319 7.43764 16.076 7.47782 15.8115C7.518 15.547 7.49738 15.2728 7.41856 15.0236C7.33974 14.7744 7.20627 14.5615 7.03502 14.4116C6.86377 14.2618 6.66243 14.1818 6.45647 14.1818C6.18028 14.1818 5.9154 14.3255 5.72011 14.5812C5.52482 14.837 5.4151 15.1838 5.4151 15.5455ZM7.08129 15.5455C7.08129 15.7073 7.04464 15.8655 6.97598 16C6.90733 16.1346 6.80974 16.2394 6.69557 16.3014C6.5814 16.3633 6.45577 16.3795 6.33457 16.3479C6.21337 16.3164 6.10203 16.2384 6.01465 16.124C5.92727 16.0096 5.86776 15.8638 5.84365 15.7051C5.81954 15.5464 5.83192 15.3819 5.87921 15.2324C5.9265 15.0829 6.00658 14.9551 6.10934 14.8652C6.21209 14.7753 6.33289 14.7273 6.45647 14.7273C6.62218 14.7273 6.7811 14.8135 6.89828 14.9669C7.01546 15.1204 7.08129 15.3285 7.08129 15.5455Z" fill="#1D2D5B"/>
<path d="M1.87447 5.99999C1.92971 5.99999 1.98268 5.97126 2.02174 5.92011C2.0608 5.86897 2.08275 5.7996 2.08275 5.72727V3.81817H21.6604V5.72727C21.6604 5.7996 21.6824 5.86897 21.7214 5.92011C21.7605 5.97126 21.8135 5.99999 21.8687 5.99999C21.9239 5.99999 21.9769 5.97126 22.016 5.92011C22.055 5.86897 22.077 5.7996 22.077 5.72727V3.54545C22.077 3.47312 22.055 3.40375 22.016 3.3526C21.9769 3.30145 21.9239 3.27272 21.8687 3.27272H1.87447C1.81923 3.27272 1.76626 3.30145 1.7272 3.3526C1.68814 3.40375 1.6662 3.47312 1.6662 3.54545V5.72727C1.6662 5.7996 1.68814 5.86897 1.7272 5.92011C1.76626 5.97126 1.81923 5.99999 1.87447 5.99999Z" fill="#1D2D5B"/>
<path d="M3.54064 2.72727C3.59588 2.72727 3.64885 2.69854 3.68791 2.64739C3.72697 2.59625 3.74891 2.52688 3.74891 2.45455V0.545455H19.9942V2.45455C19.9942 2.52688 20.0162 2.59625 20.0552 2.64739C20.0943 2.69854 20.1473 2.72727 20.2025 2.72727C20.2577 2.72727 20.3107 2.69854 20.3498 2.64739C20.3888 2.59625 20.4108 2.52688 20.4108 2.45455V0.272727C20.4108 0.200396 20.3888 0.131026 20.3498 0.0798798C20.3107 0.0287335 20.2577 0 20.2025 0H3.54064C3.4854 0 3.43243 0.0287335 3.39337 0.0798798C3.35431 0.131026 3.33237 0.200396 3.33237 0.272727V2.45455C3.33237 2.52688 3.35431 2.59625 3.39337 2.64739C3.43243 2.69854 3.4854 2.72727 3.54064 2.72727Z" fill="#1D2D5B"/>
<path d="M23.9514 14.1818C22.54 14.1892 21.1749 14.8419 20.0919 16.027C19.0089 17.2121 18.276 18.8553 18.0198 20.6727L17.4949 19.2437C17.4829 19.2114 17.4661 19.1826 17.4456 19.1589C17.425 19.1351 17.4011 19.1169 17.3752 19.1052C17.3493 19.0936 17.3219 19.0887 17.2945 19.091C17.2672 19.0932 17.2404 19.1024 17.2158 19.1182C17.1912 19.134 17.1692 19.1559 17.1511 19.1828C17.1329 19.2097 17.119 19.241 17.1101 19.2749C17.1012 19.3089 17.0975 19.3448 17.0992 19.3806C17.1009 19.4164 17.108 19.4514 17.12 19.4837L17.9531 21.6655C17.9651 21.6829 17.9791 21.6977 17.9948 21.7091H18.0198C18.0504 21.7317 18.0846 21.7448 18.1197 21.7473C18.1544 21.7484 18.1888 21.7385 18.2199 21.7186C18.2511 21.6987 18.2782 21.6692 18.2988 21.6327L19.9109 20.1273C19.9551 20.0839 19.9843 20.0193 19.9921 19.9477C19.9999 19.8761 19.9857 19.8033 19.9525 19.7455C19.9194 19.6876 19.8701 19.6493 19.8154 19.6391C19.7607 19.6289 19.7051 19.6475 19.661 19.6909L18.4113 20.9237C18.6303 19.1499 19.3373 17.5423 20.3991 16.4041C21.4609 15.266 22.804 14.6759 24.1751 14.7452C25.5463 14.8144 26.8507 15.5383 27.8424 16.7802C28.834 18.0221 29.4444 19.6962 29.5583 21.4868C29.6723 23.2774 29.2819 25.0607 28.4609 26.5004C27.6399 27.9401 26.445 28.9367 25.1015 29.3022C23.7581 29.6677 22.3589 29.3769 21.1679 28.4845C19.9769 27.5922 19.0764 26.1601 18.6362 24.4582C18.6174 24.3901 18.579 24.3343 18.5292 24.3028C18.4794 24.2712 18.4222 24.2663 18.3697 24.2891C18.318 24.3127 18.2754 24.3619 18.2513 24.4263C18.2271 24.4906 18.2233 24.5647 18.2405 24.6327C18.5976 26.0103 19.2378 27.2322 20.0909 28.1641C20.9439 29.096 21.9767 29.7018 23.0757 29.9148C24.1746 30.1278 25.2971 29.9398 26.3198 29.3714C27.3424 28.8031 28.2255 27.8764 28.872 26.6934C29.5184 25.5103 29.9032 24.1167 29.984 22.6659C30.0647 21.215 29.8383 19.7631 29.3297 18.4698C28.8211 17.1765 28.0499 16.0919 27.101 15.3354C26.1521 14.5789 25.0623 14.1797 23.9514 14.1818Z" fill="#1D2D5B"/>
<path d="M23.5349 17.4545C23.4796 17.4545 23.4267 17.4833 23.3876 17.5344C23.3485 17.5856 23.3266 17.6549 23.3266 17.7273V23.1818C23.325 23.1999 23.325 23.2182 23.3266 23.2364C23.3246 23.2526 23.3246 23.2692 23.3266 23.2855V23.3236C23.334 23.3406 23.3439 23.3554 23.3558 23.3673L25.4385 25.5491C25.4753 25.5872 25.5207 25.6083 25.5676 25.6091C25.599 25.6097 25.6301 25.6007 25.6583 25.5827C25.6865 25.5647 25.7111 25.5382 25.7301 25.5055C25.7641 25.4489 25.7797 25.3771 25.7735 25.3056C25.7672 25.234 25.7397 25.1686 25.6967 25.1236L23.7431 23.0509V17.7273C23.7431 17.6549 23.7212 17.5856 23.6821 17.5344C23.6431 17.4833 23.5901 17.4545 23.5349 17.4545Z" fill="#1D2D5B"/>
<path d="M15.6205 23.4545H0.416546V7.63635H23.3266V12.8454C23.3266 12.9178 23.3485 12.9871 23.3876 13.0383C23.4267 13.0894 23.4796 13.1182 23.5349 13.1182C23.5901 13.1182 23.6431 13.0894 23.6821 13.0383C23.7212 12.9871 23.7431 12.9178 23.7431 12.8454V7.39089C23.7431 7.31856 23.7212 7.24919 23.6821 7.19804C23.6431 7.1469 23.5901 7.11816 23.5349 7.11816H0.208273C0.153036 7.11816 0.10006 7.1469 0.0610017 7.19804C0.0219429 7.24919 0 7.31856 0 7.39089V23.7545C0 23.8269 0.0219429 23.8962 0.0610017 23.9474C0.10006 23.9985 0.153036 24.0273 0.208273 24.0273H15.6205C15.6757 24.0273 15.7287 23.9985 15.7678 23.9474C15.8068 23.8962 15.8288 23.8269 15.8288 23.7545C15.8288 23.6822 15.8068 23.6128 15.7678 23.5617C15.7287 23.5105 15.6757 23.4818 15.6205 23.4818V23.4545Z" fill="#1D2D5B"/>
<path d="M15.8954 20.7273H3.78638C3.74071 20.3014 3.59041 19.9066 3.35819 19.6025C3.12597 19.2984 2.82447 19.1016 2.49925 19.0418V12.0491C2.82447 11.9893 3.12597 11.7925 3.35819 11.4884C3.59041 11.1843 3.74071 10.7895 3.78638 10.3636H19.5402C19.5858 10.7895 19.7361 11.1843 19.9683 11.4884C20.2006 11.7925 20.5021 11.9893 20.8273 12.0491V13.5164C20.8273 13.5887 20.8492 13.6581 20.8883 13.7092C20.9274 13.7604 20.9803 13.7891 21.0356 13.7891C21.0908 13.7891 21.1438 13.7604 21.1828 13.7092C21.2219 13.6581 21.2438 13.5887 21.2438 13.5164V11.7982C21.2438 11.7259 21.2219 11.6565 21.1828 11.6053C21.1438 11.5542 21.0908 11.5255 21.0356 11.5255C20.8917 11.5255 20.7492 11.4884 20.6163 11.4163C20.4834 11.3442 20.3626 11.2385 20.2609 11.1053C20.1592 10.9721 20.0785 10.8139 20.0234 10.6399C19.9684 10.4658 19.94 10.2793 19.94 10.0909C19.94 10.0186 19.9181 9.94922 19.879 9.89807C19.84 9.84693 19.787 9.81819 19.7318 9.81819H3.59477C3.53953 9.81819 3.48655 9.84693 3.4475 9.89807C3.40844 9.94922 3.38649 10.0186 3.38649 10.0909C3.38649 10.2793 3.35816 10.4658 3.3031 10.6399C3.24805 10.8139 3.16735 10.9721 3.06562 11.1053C2.9639 11.2385 2.84313 11.3442 2.71021 11.4163C2.5773 11.4884 2.43484 11.5255 2.29098 11.5255C2.23574 11.5255 2.18276 11.5542 2.1437 11.6053C2.10465 11.6565 2.0827 11.7259 2.0827 11.7982V19.2927C2.0827 19.3651 2.10465 19.4344 2.1437 19.4856C2.18276 19.5367 2.23574 19.5655 2.29098 19.5655C2.58153 19.5655 2.86017 19.7166 3.06562 19.9856C3.27107 20.2547 3.38649 20.6195 3.38649 21C3.38649 21.0723 3.40844 21.1417 3.4475 21.1929C3.48655 21.244 3.53953 21.2727 3.59477 21.2727H15.8954C15.9506 21.2727 16.0036 21.244 16.0427 21.1929C16.0817 21.1417 16.1037 21.0723 16.1037 21C16.1037 20.9277 16.0817 20.8583 16.0427 20.8072C16.0036 20.756 15.9506 20.7273 15.8954 20.7273Z" fill="#1D2D5B"/>
</svg>
