<!-- icon666.com - MILLIONS vector ICONS FREE -->
<svg viewBox="0 0 512 512" xmlns="http://www.w3.org/2000/svg">
    <path d="m512 256c0 68.378906-26.628906 132.671875-74.980469 181.019531-48.328125 48.332031-112.578125 74.960938-180.929687 74.980469h-.089844c-68.378906 0-132.671875-26.628906-181.019531-74.980469-48.351563-48.347656-74.980469-112.640625-74.980469-181.019531s26.628906-132.671875 74.980469-181.019531c48.347656-48.351563 112.640625-74.980469 181.019531-74.980469h.089844c68.351562.0195312 132.601562 26.648438 180.929687 74.980469 48.351563 48.347656 74.980469 112.640625 74.980469 181.019531zm0 0"
          fill="#0cf"></path>
    <path d="m512 256c0 68.378906-26.628906 132.671875-74.980469 181.019531-48.328125 48.332031-112.578125 74.960938-180.929687 74.980469v-512c68.351562.0195312 132.601562 26.648438 180.929687 74.980469 48.351563 48.347656 74.980469 112.640625 74.980469 181.019531zm0 0"
          fill="#00a8e8"></path>
    <path d="m349.410156 380.808594c-18.070312 19.511718-54.621094 13.480468-93.320312-7.75-56.988282-31.257813-118.621094-95.480469-132.691406-159.636719-8.308594-37.851563 4.652343-44.871094 26.730468-67.210937 17.632813-17.839844 22.460938-23.921876 34.800782-23.921876 10.082031 0 18.332031 5.832032 23.429687 14.621094 29.8125 56.621094 43.839844 66.449219 13.53125 94.011719 5.230469 12.277344 19.578125 28.957031 34.199219 42.066406 9.289062 8.339844 18.691406 15.25 25.898437 18.671875 2.0625-2.109375 5.261719-5.390625 10.082031-10.300781 20.417969-19.4375 42.339844-1.28125 54.890626 6.152344 28.617187 16.929687 41.140624 20.929687 43.828124 37.25 2.132813 16.378906-4.898437 19.816406-41.378906 56.046875zm0 0"
          fill="#fff"></path>
    <path d="m349.410156 380.808594c-18.070312 19.511718-54.621094 13.480468-93.320312-7.75v-100.070313c9.289062 8.339844 18.691406 15.25 25.898437 18.671875 2.0625-2.109375 5.261719-5.390625 10.082031-10.300781 20.417969-19.4375 42.339844-1.28125 54.890626 6.152344 28.617187 16.929687 41.140624 20.929687 43.828124 37.25 2.132813 16.378906-4.898437 19.816406-41.378906 56.046875zm0 0"
          fill="#d7f3ff"></path>
</svg>