<svg width="30" height="30" viewBox="0 0 30 30" fill="none" xmlns="http://www.w3.org/2000/svg">
<path d="M28.3333 1.66667H16.4286V0.714286C16.4286 0.320476 16.1081 0 15.7143 0H14.2857C13.8919 0 13.5714 0.320476 13.5714 0.714286V1.66667H1.66643C0.747619 1.66667 0 2.41429 0 3.3331V20.0002C0 20.919 0.747619 21.6667 1.66643 21.6667H6.21333L2.63976 29.6648C2.6069 29.7386 2.61357 29.8238 2.65738 29.8914C2.70119 29.959 2.77643 30 2.85714 30H5C5.09405 30 5.17905 29.945 5.21738 29.859L6.9631 25.9524H13.5714V29.7619C13.5714 29.8936 13.6779 30 13.8095 30H16.1905C16.3221 30 16.4286 29.8936 16.4286 29.7619V25.9524H23.0369L24.7824 29.859C24.8207 29.9448 24.906 30 24.9998 30H27.1426C27.2233 30 27.2983 29.959 27.3424 29.8914C27.3864 29.8238 27.3929 29.7383 27.36 29.6648L23.7867 21.6667H28.3336C29.2524 21.6667 30 20.919 30 20.0002V3.3331C30 2.41429 29.2521 1.66667 28.3333 1.66667ZM14.0476 0.714286C14.0476 0.583095 14.1543 0.47619 14.2857 0.47619H15.7143C15.8457 0.47619 15.9524 0.583095 15.9524 0.714286V1.66667H14.0476V0.714286ZM4.84571 29.5238H3.22429L6.735 21.6667H8.35619L7.33381 23.9548L6.58929 25.6212C6.58929 25.6214 6.58905 25.6217 6.58905 25.6219L4.84571 29.5238ZM13.5714 21.6667V23.8095H7.92048L8.87786 21.6667H13.5714ZM15.9524 21.6667V23.8095H14.0476V21.6667H15.9524ZM21.1221 21.6667L22.0795 23.8095H16.4286V21.6667H21.1221ZM15.9524 29.5238H14.0476V25.9524H15.9524V29.5238ZM7.17571 25.4762L7.70762 24.2857H22.2921L22.824 25.4762H7.17571ZM26.7757 29.5238H25.1543L23.411 25.6219C23.411 25.6217 23.4107 25.6214 23.4107 25.6212L22.6662 23.955C22.6662 23.955 22.6662 23.9548 22.666 23.9548L21.6438 21.6667H23.265L26.7757 29.5238ZM29.5238 20.0002C29.5238 20.6567 28.99 21.1905 28.3336 21.1905H23.416C23.4152 21.1905 23.4145 21.1905 23.4138 21.1905H21.2731C21.2724 21.1905 21.2717 21.1905 21.271 21.1905H8.72905C8.72833 21.1905 8.72762 21.1905 8.7269 21.1905H6.58619C6.58548 21.1905 6.58476 21.1905 6.58405 21.1905H1.66643C1.01 21.1905 0.47619 20.6567 0.47619 20.0002V3.3331C0.47619 2.6769 1.01 2.14286 1.66643 2.14286H28.3333C28.9898 2.14286 29.5238 2.6769 29.5238 3.3331V20.0002Z" fill="#1D2D5B"/>
<path d="M27.6186 2.85718H2.38144C1.72478 2.85718 1.19049 3.39123 1.19049 4.04765V19.2853C1.19049 19.9419 1.72478 20.4762 2.38144 20.4762H27.6186C28.2753 20.4762 28.8095 19.9419 28.8095 19.2853V4.04813C28.8095 3.39146 28.2753 2.85718 27.6186 2.85718ZM3.33335 19.76V17.3829C3.33335 17.2505 3.44097 17.1429 3.57335 17.1429H6.90287C7.03525 17.1429 7.14287 17.2505 7.14287 17.3829V19.76C7.14287 19.8924 7.03525 20 6.90287 20H3.57335C3.44097 20 3.33335 19.8924 3.33335 19.76ZM3.88716 16.6667L3.33501 14.7341C3.34859 14.616 3.44954 14.5238 3.57144 14.5238C3.63644 14.5238 3.73501 14.5238 3.81859 14.8274L4.34406 16.6667H3.88716ZM5.92787 16.6667L6.6562 14.1174C6.75073 13.8096 6.85478 13.8096 6.90478 13.8096C6.99692 13.8096 7.07382 13.8336 7.11025 13.8736C7.13597 13.9017 7.14763 13.9462 7.14501 14.0065L6.38501 16.6667H5.92787ZM26.9048 18.5715H20.7143V17.6191H26.9048V18.5715ZM20.7143 20V19.0477H26.9048V20H20.7143ZM28.3333 19.2853C28.3333 19.6793 28.0126 20 27.6186 20H27.381V17.6191C27.381 17.3565 27.1674 17.1429 26.9048 17.1429H20.7143C20.4517 17.1429 20.2381 17.3565 20.2381 17.6191V20H7.57478C7.60168 19.9246 7.61906 19.8446 7.61906 19.76V17.3829C7.61906 16.9881 7.29763 16.6667 6.90287 16.6667H6.88025L7.61001 14.1131C7.61406 14.0986 7.61668 14.0838 7.61811 14.0688C7.64144 13.8086 7.54597 13.6441 7.46168 13.5522C7.33287 13.411 7.13501 13.3334 6.90478 13.3334C6.56882 13.3334 6.33192 13.5503 6.19954 13.9822L5.43263 16.6667H4.83954L4.27716 14.6986C4.15811 14.2667 3.92049 14.0477 3.57144 14.0477C3.17763 14.0477 2.85716 14.3681 2.85716 14.7619C2.85716 14.7841 2.86025 14.8062 2.86621 14.8274L3.39859 16.6907C3.08835 16.7693 2.85716 17.0486 2.85716 17.3829V19.76C2.85716 19.8446 2.87454 19.9246 2.90144 20H2.38121C1.9874 20 1.66668 19.6793 1.66668 19.2853V4.04765C1.66668 3.65384 1.9874 3.33337 2.38144 3.33337H27.6186C28.0126 3.33337 28.3333 3.65408 28.3333 4.04813V19.2853Z" fill="#1D2D5B"/>
<path d="M9.975 6.79832C9.89404 6.63689 9.62999 6.63689 9.54904 6.79832L7.64428 10.6078C7.58547 10.7255 7.63309 10.8686 7.75071 10.9274C7.86833 10.9864 8.01119 10.9386 8.07023 10.8209L8.71857 9.52379H10.8052L11.4538 10.8207C11.4955 10.9043 11.5795 10.9524 11.6669 10.9524C11.7026 10.9524 11.739 10.9443 11.7731 10.9274C11.8907 10.8686 11.9383 10.7255 11.8795 10.6078L9.975 6.79832ZM8.95666 9.0476L9.7619 7.43713L10.5671 9.0476H8.95666Z" fill="#1D2D5B"/>
<path d="M16.6666 7.8571C16.6666 7.20067 16.0938 6.66663 15.3897 6.66663H13.5714C13.4397 6.66663 13.3333 6.77329 13.3333 6.90472V8.80948V10.7142C13.3333 10.8457 13.4397 10.9523 13.5714 10.9523H15.3897C16.0938 10.9523 16.6666 10.4183 16.6666 9.76186C16.6666 9.37115 16.4609 9.02663 16.1478 8.80948C16.4609 8.59234 16.6666 8.24782 16.6666 7.8571ZM16.1905 9.76186C16.1905 10.1557 15.8312 10.4761 15.3897 10.4761H13.8095V9.04758H15.3897C15.8312 9.04758 16.1905 9.36805 16.1905 9.76186ZM15.3897 8.57139H13.8095V7.14282H15.3897C15.8312 7.14282 16.1905 7.46329 16.1905 7.8571C16.1905 8.25091 15.8312 8.57139 15.3897 8.57139Z" fill="#1D2D5B"/>
<path d="M20 7.14282H20.9524C21.084 7.14282 21.1905 7.03615 21.1905 6.90472C21.1905 6.77329 21.084 6.66663 20.9524 6.66663H20C19.0812 6.66663 18.3333 7.41425 18.3333 8.33329V9.28567C18.3333 10.2047 19.0812 10.9523 20 10.9523H20.9524C21.084 10.9523 21.1905 10.8457 21.1905 10.7142C21.1905 10.5828 21.084 10.4761 20.9524 10.4761H20C19.3436 10.4761 18.8095 9.9421 18.8095 9.28567V8.33329C18.8095 7.67686 19.3436 7.14282 20 7.14282Z" fill="#1D2D5B"/>
</svg>
