<svg width="30" height="30" viewBox="0 0 30 30" fill="none" xmlns="http://www.w3.org/2000/svg">
<path d="M2.78836 22.9421L4.9882 21.8566V28.8215C4.9882 29.4726 5.71267 30 6.6058 30C7.49918 30 8.22365 29.4726 8.22365 28.8215V20.216H8.8301V28.8215C8.8301 29.4726 9.55457 30 10.4477 30C11.3411 30 12.0656 29.4726 12.0656 28.8215V14.0784C12.3891 14.1747 12.7458 14.2716 13.1144 14.3494C13.5066 14.4304 13.902 14.4953 14.3372 14.4973C14.662 14.4941 15.0504 14.4657 15.4525 14.2598C15.6485 14.1578 15.8255 14.0045 15.9306 13.8345C16.0374 13.6645 16.0765 13.4881 16.0765 13.3268C16.0599 12.8432 15.8079 12.4427 15.3891 11.909C14.9794 11.4027 14.3748 10.791 13.5151 10.0248L14.0697 9.32746C14.2145 9.14519 14.1292 8.91192 13.8793 8.8064L12.3695 8.16922C12.1196 8.06378 11.7992 8.12584 11.6544 8.30811L11.4456 8.57065C11.5097 8.67341 11.5639 8.78018 11.6073 8.89019L11.8782 8.54958L13.6706 9.30611L12.2061 11.1482L11.2626 10.7502C11.2108 10.812 11.1553 10.8719 11.096 10.9298C11.1205 10.9335 11.1446 10.9392 11.1676 10.9488C11.2823 10.9972 11.3212 11.1041 11.255 11.1876C11.1885 11.2712 11.0418 11.2997 10.9271 11.2513C10.877 11.2302 10.8424 11.1977 10.8239 11.1612C10.7089 11.2475 10.5849 11.3275 10.4531 11.4L11.4743 11.8311C11.7244 11.9365 12.0446 11.8745 12.1896 11.6922L12.3896 11.4405C12.9398 11.9543 13.3305 12.3672 13.5854 12.6831C13.6476 12.7597 13.7015 12.8305 13.7476 12.8951C13.7305 12.8916 13.7131 12.888 13.6958 12.8843C13.2703 12.7951 12.7756 12.6475 12.4014 12.5235C12.2133 12.4616 12.0544 12.4055 11.944 12.3656C11.889 12.3459 11.8459 12.3299 11.8177 12.3193C11.7893 12.3088 11.7789 12.3045 11.7789 12.3045C11.6271 12.2462 11.4617 12.2166 11.2903 12.2166H10.342C10.2993 12.2166 10.2575 12.219 10.216 12.2226H6.1871C6.18632 12.2225 6.18553 12.2224 6.18475 12.2223C6.14563 12.2187 6.08308 12.2147 5.99974 12.2147C5.62815 12.2073 4.77179 12.3201 4.01108 12.8997C3.34483 13.4026 2.76573 14.1958 2.40133 15.4636C2.34821 15.6482 2.29967 15.8426 2.25597 16.048C2.25597 16.0485 2.25597 16.0492 2.25571 16.0499C2.09595 16.8044 2.00292 17.7069 2.00292 18.7947C2.00292 19.3528 2.02752 19.9601 2.08064 20.6212C2.11335 21.0263 2.57457 21.3389 3.12489 21.3391C3.14556 21.3391 3.16597 21.3385 3.18704 21.3376C3.76405 21.313 4.20433 20.9522 4.17057 20.5317C4.11941 19.8976 4.09626 19.3202 4.09652 18.7946C4.09626 17.7719 4.18444 16.9461 4.32392 16.2853C4.32444 16.2837 4.32497 16.2823 4.32523 16.2807C4.36631 16.0859 4.41211 15.9072 4.46117 15.7408C4.61504 15.2178 4.80188 14.8292 4.98807 14.5442V17.4814L4.39013 17.7765C4.38241 17.8926 4.37639 18.0111 4.37142 18.1313L4.93259 17.8543L7.28055 20.38L2.89304 22.545L0.545348 20.0193L1.75236 19.4236C1.74883 19.3084 1.74621 19.1945 1.74464 19.082L0 19.943L2.78836 22.9421ZM8.52668 19.1515L7.28369 18.0075L7.99952 14.1637C8.16922 14.21 8.34782 14.2342 8.52642 14.2341H8.52668C8.52668 14.2341 8.5272 14.2341 8.52747 14.2341C8.7058 14.2341 8.88401 14.2099 9.05345 14.1636L9.76981 18.0075L8.52668 19.1515ZM8.02935 13.0027H8.52668H9.02375L9.27235 13.7176L9.23453 13.7611C9.02964 13.8856 8.77868 13.948 8.52642 13.9481C8.27416 13.948 8.02346 13.8857 7.81883 13.7615L7.78075 13.7176L8.02935 13.0027Z" fill="#1D2D5B"/>
<path d="M4.64191 18.771L4.42728 18.88L5.8653 20.3821L6.07994 20.273L4.64191 18.771Z" fill="#1D2D5B"/>
<path d="M5.16498 20.7249L4.39145 19.9181C4.39812 20.0356 4.40571 20.1545 4.41422 20.2745L4.95067 20.8341L5.16498 20.7249Z" fill="#1D2D5B"/>
<path d="M18.8762 8.63508C20.0547 9.37235 21.5862 9.81887 23.2617 9.81887C26.9829 9.81887 30 7.62078 30 4.90944C30 2.19809 26.983 0 23.2617 0C19.5401 0 16.5233 2.19809 16.5233 4.90944C16.5233 5.87321 16.9059 6.7714 17.5644 7.52974L15.5075 9.74852L18.8762 8.63508ZM17.3084 4.90934C17.3084 2.51773 19.9788 0.572069 23.2614 0.572069C26.5442 0.572069 29.2147 2.51773 29.2147 4.90934C29.2147 7.30095 26.5442 9.24681 23.2614 9.24681C19.9788 9.24681 17.3084 7.30095 17.3084 4.90934Z" fill="#1D2D5B"/>
<path d="M8.52661 11.6794C10.1525 11.6794 11.4705 10.7191 11.4705 9.53452C11.4705 8.34992 10.1525 7.38962 8.52661 7.38962C6.90072 7.38962 5.58267 8.34992 5.58267 9.53452C5.58267 10.7191 6.90072 11.6794 8.52661 11.6794Z" fill="#1D2D5B"/>
<path d="M20.5879 8.1308C20.6932 7.44538 20.8813 6.99743 21.0676 6.71955V8.31774C21.7338 8.54634 22.4771 8.67484 23.2613 8.67484C24.0458 8.67484 24.7895 8.54624 25.4561 8.31745V6.7226C25.5041 6.79438 25.5524 6.87675 25.6002 6.97284C25.7356 7.24595 25.8578 7.62374 25.9353 8.1307C26.3707 7.93804 26.764 7.69953 27.1034 7.42479C26.9369 6.78771 26.6859 6.33814 26.391 6.00992C26.1245 5.71507 25.8129 5.52613 25.5247 5.42146C25.237 5.31574 24.9842 5.29467 24.8404 5.29505C24.7887 5.29505 24.7498 5.29753 24.7254 5.29991C24.7251 5.29991 24.7249 5.29991 24.7249 5.29991H21.7988C21.7983 5.29991 21.7981 5.29982 21.7978 5.29982H21.7975C21.7732 5.29762 21.7345 5.29505 21.6828 5.29505C21.5389 5.29476 21.2862 5.31574 20.9985 5.42146C20.562 5.57913 20.0915 5.92412 19.7624 6.53518C19.6278 6.78304 19.5115 7.07646 19.4203 7.42536C19.7592 7.69982 20.1522 7.93814 20.5879 8.1308Z" fill="#1D2D5B"/>
<path d="M23.2617 4.96294C24.2698 4.96294 25.087 4.36751 25.087 3.633C25.087 2.8985 24.2698 2.30307 23.2617 2.30307C22.2536 2.30307 21.4363 2.8985 21.4363 3.633C21.4363 4.36751 22.2536 4.96294 23.2617 4.96294Z" fill="#1D2D5B"/>
</svg>
