<svg width="25" height="25" viewBox="0 0 25 25" fill="none" xmlns="http://www.w3.org/2000/svg">
<path d="M6.09769 25H2.39671C1.85484 25 1.41592 24.5996 1.41592 24.1161V17.289C1.41592 16.8007 1.86026 16.4051 2.39671 16.4051H6.09769C6.63957 16.4051 7.07848 16.8056 7.07848 17.289V24.1161C7.0839 24.6044 6.63957 25 6.09769 25Z" fill="#1D2D5B"/>
<path d="M14.177 25H10.8282C10.1942 25 9.66861 24.5312 9.66861 23.9549V14.105C9.66861 13.5337 10.1888 13.06 10.8282 13.06H14.177C14.811 13.06 15.3366 13.5288 15.3366 14.105V23.9549C15.3366 24.5312 14.8164 25 14.177 25Z" fill="#1D2D5B"/>
<path d="M22.2834 25H19.2326C18.5119 25 17.9267 24.4677 17.9267 23.8231V10.9552C17.9267 10.3057 18.5174 9.77832 19.2326 9.77832H22.2834C23.0041 9.77832 23.5893 10.3106 23.5893 10.9552V23.8231C23.5893 24.4726 23.0041 25 22.2834 25Z" fill="#1D2D5B"/>
<path d="M22.7494 0.0016583C21.5573 0.0456093 20.6307 0.95393 20.6794 2.03317L15.174 6.91173L10.4814 3.21008L1.89276 10.9748C0.787339 11.1017 -0.0417249 11.9612 0.00162478 12.9818C0.0503932 14.0562 1.06369 14.8913 2.25581 14.8473C3.44793 14.8034 4.37453 13.8902 4.32576 12.8158C4.32034 12.7279 4.29867 12.6449 4.28241 12.557L10.7469 6.96545L15.2824 10.545L22.7982 3.89376C22.8415 3.89376 22.8849 3.90353 22.9282 3.89865C24.1203 3.85469 25.0469 2.94149 24.9982 1.86713C24.9494 0.792776 23.9415 -0.0422927 22.7494 0.0016583Z" fill="#1D2D5B"/>
</svg>
