<svg width="30" height="30" viewBox="0 0 30 30" fill="none" xmlns="http://www.w3.org/2000/svg">
<path d="M8.49997 15C10.9853 15 13 12.2526 13 8.8636C13 5.47458 10.9853 2.72723 8.49997 2.72723C6.01469 2.72723 3.99997 5.47458 3.99997 8.8636C3.99997 12.2526 6.01469 15 8.49997 15Z" fill="#1D2D5B"/>
<path d="M13.625 18.4091C11.865 17.1904 9.9225 16.7046 8.5 16.7046C5.71375 16.7046 0 19.0347 0 23.6932V27.2728H9.375V25.9032C9.375 24.2839 9.875 22.6603 10.75 21.3069C11.4481 20.2262 12.4256 19.2231 13.625 18.4091Z" fill="#1D2D5B"/>
<path d="M20.25 17.7272C16.9956 17.7272 10.5 20.4681 10.5 25.9091V30H30V25.9091C30 20.4681 23.5044 17.7272 20.25 17.7272Z" fill="#1D2D5B"/>
<path d="M20.25 15C23.2876 15 25.75 11.6421 25.75 7.5C25.75 3.35786 23.2876 0 20.25 0C17.2125 0 14.75 3.35786 14.75 7.5C14.75 11.6421 17.2125 15 20.25 15Z" fill="#1D2D5B"/>
</svg>
